<svg width="42" height="29" viewBox="0 0 42 29" fill="none" xmlns="http://www.w3.org/2000/svg">
<g clip-path="url(#clip0_201_93360)">
<path d="M4.64356 19.7681H6.33106V17.8814H4.63184C2.9209 17.8814 1.90137 17.3189 1.90137 14.7525V9.49082C1.90137 8.94004 2.37012 8.76426 2.80371 8.9752C3.95215 9.4791 5.19434 9.8541 6.84668 9.8541C8.82715 9.8541 10.8544 8.77598 12.4951 6.65488C13.6552 5.1666 14.4287 5.09629 16.0693 6.04551L22.3857 9.70176C23.8037 10.5338 24.4482 10.651 25.7373 10.651C26.9443 10.651 29.8271 10.194 30.9521 10.194C32.7685 10.194 33.6708 11.0729 33.6708 12.8072C33.6708 13.2173 33.5654 13.5923 33.3427 13.9439H35.3935C35.5107 13.5806 35.5693 13.1939 35.5693 12.8072C35.5693 10.1354 33.706 8.30723 30.9638 8.30723C29.6865 8.30723 26.8154 8.76426 25.7373 8.76426C24.6591 8.76426 24.4248 8.71738 23.3115 8.08457L17.0302 4.40488C14.7919 3.1041 12.7177 3.27989 11.0068 5.50645C9.65918 7.2291 8.27637 7.96738 6.84668 7.96738C5.58106 7.96738 4.71387 7.76816 3.77637 7.33457C1.97168 6.54942 0.0146484 7.35801 0.0146484 9.50254V14.7525C0.0146484 18.69 2.38184 19.7681 4.64356 19.7681ZM3.88184 16.733H6.33106V15.4205H3.88184C2.76856 15.4205 2.18262 15.2798 1.85449 14.94V16.2994C2.44043 16.6158 3.00293 16.733 3.88184 16.733ZM22.7255 8.84629C20.4873 7.54551 18.4248 7.72129 16.7021 9.94785C15.3544 11.6705 13.9716 12.4088 12.5419 12.4088C11.2763 12.4088 10.4208 12.2096 9.47168 11.776C7.67871 10.9908 5.72168 11.7994 5.72168 13.9439V19.1939C5.72168 23.1314 8.08887 24.2095 10.3505 24.2095H28.9834C32.7568 24.2095 34.9249 23.6353 37.8662 22.0064C40.1982 20.7056 41.2763 19.1002 41.2763 17.2486C41.2763 14.5767 39.4013 12.7486 36.6591 12.7486C35.3936 12.7486 32.5224 13.2056 31.4326 13.2056C30.3662 13.2056 30.1201 13.1587 29.0185 12.526L22.7255 8.84629ZM21.7763 10.4869L28.081 14.1431C29.5107 14.9752 30.1435 15.0923 31.4326 15.0923C32.6396 15.0923 35.5224 14.6353 36.6474 14.6353C38.4755 14.6353 39.3779 15.5259 39.3779 17.2486C39.3779 18.4908 38.663 19.4166 36.9638 20.3658C34.2802 21.8541 32.499 22.3228 28.9834 22.3228H10.3388C8.61621 22.3228 7.6084 21.7603 7.6084 19.1939V13.9322C7.6084 13.3814 8.07715 13.2056 8.51074 13.4166C9.65918 13.9205 10.8896 14.2955 12.5419 14.2955C14.5341 14.2955 16.5615 13.2173 18.2021 11.0963C19.3623 9.60801 20.1357 9.5377 21.7763 10.4869ZM7.54981 20.7408C8.14746 21.0572 8.70996 21.1744 9.57715 21.1744H28.9834C31.9482 21.1744 33.4951 20.7759 35.3584 19.8033L37.4443 18.7486C39.413 17.7173 39.4834 16.9791 39.4599 15.2681L38.2412 15.2447C38.9326 15.6666 38.6982 16.5923 36.8232 17.5884L34.7255 18.6666C33.0966 19.5337 31.831 19.8619 28.9834 19.8619H9.57715C8.47559 19.8619 7.88965 19.7213 7.54981 19.3814V20.7408ZM22.8193 10.1002L20.7451 12.9479C20.5224 13.2291 20.5576 13.6509 20.8271 13.8619C21.1084 14.0845 21.5419 14.0611 21.7529 13.7798L23.8388 10.9205L22.8193 10.1002ZM25.4677 11.4479L23.4169 14.2603C23.1826 14.5767 23.2177 14.9634 23.499 15.1627C23.8154 15.4322 24.2021 15.4087 24.4365 15.0806L26.4873 12.2682L25.4677 11.4479ZM28.1044 12.8072L26.0888 15.5728C25.8544 15.8775 25.8896 16.2642 26.1591 16.4752C26.4639 16.733 26.8505 16.6978 27.0849 16.3931L29.124 13.6158L28.1044 12.8072Z" fill="black" fill-opacity="0.85"/>
</g>
<defs>
<clipPath id="clip0_201_93360">
<rect width="41.2617" height="21.082" fill="white" transform="translate(0.0146484 3.12744)"/>
</clipPath>
</defs>
</svg>
