<svg width="29" height="32" viewBox="0 0 29 32" fill="none" xmlns="http://www.w3.org/2000/svg">
<g clip-path="url(#clip0_201_93098)">
<path d="M19.6749 7.54734C17.9288 7.54734 16.5812 8.50828 15.6319 10.7466C12.2335 7.3364 6.86631 4.30125 1.51084 3.89109C0.315527 3.80906 0.116308 4.73484 0.0928705 5.42625C-0.28213 11.2973 4.27647 16.4067 10.1359 17.0747C8.58897 20.52 6.50303 23.8012 3.6085 26.5434C3.13975 26.977 3.26865 27.5864 3.56162 28.02C4.94443 30.1528 9.26865 31.4184 12.1866 30.4106C12.8898 30.1645 13.0069 29.7778 13.0069 29.2387V24.8911C16.2062 24.7153 21.2687 22.6059 20.4366 16.102L20.3194 15.2817C22.7218 14.6723 24.3507 13.1137 24.3507 11.5434C24.3507 9.62156 22.2296 7.54734 19.6749 7.54734ZM19.7804 9.23484C21.4562 9.23484 22.6632 10.4536 22.6632 11.5434C22.6632 12.4341 21.4796 13.4653 19.2062 13.7817C18.8546 13.8169 18.5968 14.0747 18.6319 14.4028L18.7843 16.1489C19.2882 22.1723 14.6241 23.0278 11.9054 23.1567C11.5655 23.1684 11.3077 23.4028 11.3077 23.7544V28.8872C11.3077 29.0044 11.2609 29.0981 11.1319 29.1098C8.8585 29.52 6.38584 28.6997 5.21397 27.4927C5.13193 27.4106 5.09678 27.2817 5.19053 27.1997C8.35459 24.1645 10.5109 20.4848 12.128 16.6177C12.3507 16.0786 12.1398 15.645 11.589 15.6216C6.01084 15.4809 1.82725 11.3794 1.78037 5.8364C1.78037 5.66062 1.81553 5.61375 2.00303 5.63719C6.94834 6.24656 11.6241 9.04734 14.3077 11.8247C14.7882 12.3052 15.128 12.5512 15.5968 12.5512C16.3585 12.5512 16.7218 12.1762 17.1085 11.3911C17.7882 9.98484 18.3859 9.23484 19.7804 9.23484ZM17.589 8.93015L19.171 8.37937C17.5421 4.60594 15.3038 2.00437 12.2569 0.258276C11.3546 -0.257349 10.4405 0.12937 10.1944 1.10203C9.6085 3.23484 9.37412 5.28562 9.65537 7.41844L11.4952 8.28562C11.0734 6.15281 11.1554 4.28953 11.6476 2.29734C11.6827 2.0864 11.8937 2.01609 12.0694 2.12156C14.4366 3.66844 16.2062 5.80125 17.589 8.93015ZM20.5538 11.8481C20.9405 11.8481 21.2687 11.5317 21.2687 11.1333C21.2687 10.7466 20.9405 10.4067 20.5538 10.4067C20.1437 10.4067 19.8273 10.7466 19.8273 11.1333C19.8273 11.5317 20.1437 11.8481 20.5538 11.8481ZM22.5109 13.3716L26.7882 13.9809C27.5851 14.0981 27.9601 12.9145 27.1515 12.5747L23.2843 10.9341L22.5109 13.3716Z" fill="black" fill-opacity="0.85"/>
</g>
<defs>
<clipPath id="clip0_201_93098">
<rect width="27.5313" height="31.1494" fill="white" transform="translate(0.0712891 0.0292969)"/>
</clipPath>
</defs>
</svg>
