<svg width="30" height="29" viewBox="0 0 30 29" fill="none" xmlns="http://www.w3.org/2000/svg">
<g clip-path="url(#clip0_201_85994)">
<path d="M1.00244 23.7988H1.70557C2.30323 23.7988 2.70166 23.4121 2.70166 22.8027V21.0684C2.83057 21.1035 3.21729 21.127 3.49854 21.127H26.2094C26.4907 21.127 26.8774 21.1035 27.0063 21.0684V22.8027C27.0063 23.4121 27.4047 23.7988 28.0024 23.7988H28.7055C29.3149 23.7988 29.7016 23.4121 29.7016 22.8027V14.7754C29.7016 12.5371 28.4829 11.3301 26.2446 11.3301H3.46338C1.2251 11.3301 0.00634766 12.5371 0.00634766 14.7754V22.8027C0.00634766 23.4121 0.393067 23.7988 1.00244 23.7988ZM2.3501 19.416C2.10401 19.416 1.95166 19.2402 1.95166 18.959V14.5059C1.95166 13.6152 2.5376 13.041 3.45166 13.041H26.268C27.1704 13.041 27.7563 13.6152 27.7563 14.5059V18.959C27.7563 19.2402 27.604 19.416 27.3579 19.416H2.3501ZM3.05323 11.5762H6.13526V9.16211C6.13526 8.07227 6.74463 7.47461 7.85791 7.47461H11.9711C13.0727 7.47461 13.6821 8.07227 13.6821 9.16211V11.5762H16.0258V9.16211C16.0258 8.07227 16.6352 7.47461 17.7368 7.47461H21.8501C22.9633 7.47461 23.5727 8.07227 23.5727 9.16211V11.5762H26.6547V7.31055C26.6547 5.14258 25.4946 4.0293 23.3852 4.0293H6.32276C4.2251 4.0293 3.05323 5.14258 3.05323 7.31055V11.5762Z" fill="black" fill-opacity="0.85"/>
</g>
<defs>
<clipPath id="clip0_201_85994">
<rect width="29.6953" height="19.793" fill="white" transform="translate(0.00634766 4.0293)"/>
</clipPath>
</defs>
</svg>
