<svg width="28" height="29" viewBox="0 0 28 29" fill="none" xmlns="http://www.w3.org/2000/svg">
<g clip-path="url(#clip0_201_93546)">
<path d="M23.7479 18.4786C24.6971 17.459 23.2908 16.0293 22.1893 17.1192C20.6424 18.6543 18.0057 19.6036 15.0994 19.6036C11.912 19.6036 8.87681 18.8653 5.97056 17.2833C4.64634 16.5567 3.66196 18.4434 5.03306 19.17C8.1854 20.8457 11.619 21.6895 15.0994 21.6895C18.6736 21.6895 21.8377 20.5176 23.7479 18.4786ZM7.15415 19.92C6.88462 20.4356 6.28696 21.4083 5.92368 21.795C5.10337 22.6504 6.29868 23.7051 7.11899 22.8145C7.85728 22.0059 8.44321 20.7637 8.66587 20.3887L7.15415 19.92ZM11.244 20.8575C11.0213 21.9004 10.6698 23.0606 10.4706 23.5176C9.99009 24.6192 11.4784 25.1934 11.9471 24.0684C12.3572 23.0372 12.6385 21.5137 12.6971 21.0801L11.244 20.8575ZM15.4979 21.1153C15.6502 22.1817 15.5917 23.4004 15.5564 23.9043C15.4979 25.0997 17.1033 25.1231 17.1268 23.9161C17.1619 22.8028 17.0213 21.2676 16.9393 20.834L15.4979 21.1153ZM19.4822 20.3536C20.0799 21.5372 20.2674 22.7793 20.3729 23.2833C20.5838 24.4668 22.1541 23.9395 21.8963 22.8965C21.5799 21.584 21.1814 20.2247 20.7361 19.5684L19.4822 20.3536Z" fill="black" fill-opacity="0.85"/>
<path d="M4.49394 13.6387C6.70879 13.6387 14.1736 8.27148 17.8064 8.27148C19.0838 8.27148 20.2088 8.78711 21.3924 9.86523L24.3338 12.5723C25.3064 13.4629 26.6893 12.4082 26.115 11.4121C25.5994 10.5684 24.8143 9.39648 23.0799 7.47461C21.2049 5.38867 19.4939 4.06445 16.8104 4.06445C13.3299 4.06445 8.03301 6.08007 3.11113 8.69336C1.01348 9.80664 2.1502 13.6387 4.49394 13.6387Z" fill="black" fill-opacity="0.85"/>
</g>
<defs>
<clipPath id="clip0_201_93546">
<rect width="24.2418" height="20.8242" fill="white" transform="translate(2.0083 4.06445)"/>
</clipPath>
</defs>
</svg>
