<svg width="105" height="103" viewBox="0 0 105 103" fill="none" xmlns="http://www.w3.org/2000/svg">
<path d="M60.5564 59.8968L100.192 3L82.0792 5.36175L43.2956 59.8968L60.5564 59.8968Z" fill="white" stroke="black" stroke-width="4"/>
<path d="M47.338 78.9846L49.2297 76.3646L49.0244 76.1949L41.9486 70.3784L41.7241 70.1435L39.5796 72.4628L47.338 78.9846Z" fill="black"/>
<path d="M49.2299 76.3642L63.6137 56.4446L49.8928 48.9672L49.8208 49.1185L44.6477 57.6071L15.3676 46.8738C15.3676 46.8738 22.4158 57.3454 29.9568 63.8912C37.4977 70.4371 44.3466 67.332 44.3466 67.332L41.7287 70.166L41.9531 70.401L49.029 76.2175L49.2299 76.3642ZM42.929 59.9592C42.7899 60.2914 42.561 60.5716 42.2712 60.7644C41.9815 60.9572 41.6438 61.0539 41.301 61.0423C40.9581 61.0307 40.6254 60.9114 40.345 60.6993C40.0645 60.4873 39.8488 60.192 39.7252 59.8509C39.6015 59.5098 39.5755 59.1381 39.6503 58.7828C39.7251 58.4275 39.8975 58.1046 40.1455 57.8547C40.3936 57.6049 40.7063 57.4394 41.0442 57.3792C41.382 57.3189 41.7297 57.3667 42.0435 57.5163C42.4646 57.7178 42.7945 58.0884 42.9606 58.5465C43.1266 59.0046 43.1152 59.5128 42.929 59.9592V59.9592ZM37.9196 57.9011C37.7805 58.2333 37.5516 58.5135 37.2619 58.7063C36.9721 58.8991 36.6344 58.9958 36.2916 58.9842C35.9488 58.9726 35.6161 58.8533 35.3356 58.6412C35.0551 58.4292 34.8394 58.1339 34.7158 57.7928C34.5922 57.4517 34.5661 57.08 34.6409 56.7247C34.7157 56.3694 34.8881 56.0465 35.1362 55.7966C35.3842 55.5468 35.697 55.3813 36.0348 55.3211C36.3726 55.2609 36.7203 55.3086 37.0341 55.4582C37.2425 55.5578 37.4308 55.7 37.5881 55.8765C37.7453 56.0531 37.8686 56.2606 37.9508 56.4873C38.033 56.7139 38.0725 56.9552 38.0671 57.1974C38.0616 57.4396 38.0114 57.678 37.9192 57.8988L37.9196 57.9011ZM32.9102 55.843C32.7711 56.1753 32.5422 56.4555 32.2525 56.6482C31.9627 56.841 31.6251 56.9377 31.2822 56.9261C30.9394 56.9146 30.6067 56.7952 30.3262 56.5831C30.0458 56.3711 29.8301 56.0759 29.7064 55.7347C29.5828 55.3936 29.5567 55.022 29.6315 54.6667C29.7064 54.3114 29.8787 53.9884 30.1268 53.7386C30.3749 53.4887 30.6876 53.3233 31.0254 53.263C31.3632 53.2028 31.711 53.2505 32.0247 53.4001C32.4444 53.6015 32.7731 53.9709 32.9389 54.4276C33.1046 54.8842 33.0938 55.3907 32.9089 55.8361L32.9102 55.843Z" fill="#FFF500"/>
<path d="M63.7872 56.2051L63.6089 56.4455L49.2251 76.365L47.3335 78.9851L39.5772 72.4628L41.7217 70.1435L44.3395 67.3094C44.3395 67.3094 37.4885 70.4149 29.9498 63.8686C22.411 57.3224 15.3606 46.8512 15.3606 46.8512L44.6481 57.6116L49.8212 49.123" stroke="black" stroke-width="4" stroke-linecap="round" stroke-linejoin="round"/>
<path d="M42.2716 57.6167C41.9838 57.4795 41.6649 57.4357 41.3551 57.4909C41.0453 57.5462 40.7585 57.6979 40.531 57.9271C40.3034 58.1562 40.1454 58.4524 40.0768 58.7782C40.0082 59.1041 40.032 59.445 40.1454 59.7578C40.2588 60.0706 40.4566 60.3414 40.7138 60.5359C40.9711 60.7304 41.2762 60.8398 41.5906 60.8504C41.9051 60.8611 42.2147 60.7724 42.4804 60.5956C42.7462 60.4188 42.9561 60.1618 43.0837 59.8571C43.1685 59.6544 43.2149 59.4356 43.22 59.2133C43.2251 58.9909 43.1889 58.7693 43.1134 58.5612C43.038 58.3531 42.9248 58.1625 42.7804 58.0005C42.6359 57.8384 42.463 57.708 42.2716 57.6167V57.6167Z" fill="#FFF500" stroke="black" stroke-width="4" stroke-linecap="round" stroke-linejoin="round"/>
<path d="M37.6776 55.7258C37.3899 55.5886 37.0709 55.5448 36.7611 55.6001C36.4513 55.6553 36.1645 55.8071 35.937 56.0362C35.7095 56.2653 35.5514 56.5615 35.4828 56.8874C35.4142 57.2132 35.4381 57.5541 35.5515 57.8669C35.6649 58.1798 35.8627 58.4505 36.1199 58.645C36.3771 58.8395 36.6822 58.9489 36.9967 58.9596C37.3111 58.9702 37.6207 58.8815 37.8865 58.7047C38.1522 58.5279 38.3622 58.2709 38.4897 57.9662C38.5746 57.7635 38.6209 57.5447 38.626 57.3224C38.6311 57.1 38.5949 56.8784 38.5195 56.6703C38.444 56.4622 38.3309 56.2717 38.1864 56.1096C38.0419 55.9475 37.869 55.8171 37.6776 55.7258V55.7258Z" fill="#FFF500" stroke="black" stroke-width="4" stroke-linecap="round" stroke-linejoin="round"/>
<path d="M33.0807 53.837C32.7929 53.6998 32.474 53.656 32.1642 53.7113C31.8544 53.7665 31.5676 53.9183 31.3401 54.1474C31.1126 54.3765 30.9545 54.6727 30.8859 54.9986C30.8173 55.3244 30.8412 55.6653 30.9546 55.9781C31.068 56.291 31.2658 56.5617 31.523 56.7562C31.7802 56.9507 32.0853 57.0602 32.3998 57.0708C32.7142 57.0814 33.0238 56.9927 33.2896 56.8159C33.5553 56.6391 33.7652 56.3821 33.8928 56.0774C34.0636 55.668 34.074 55.202 33.9218 54.7818C33.7695 54.3617 33.4669 54.0219 33.0807 53.837V53.837Z" fill="#FFF500" stroke="black" stroke-width="4" stroke-linecap="round" stroke-linejoin="round"/>
</svg>
