<svg width="64" height="100" viewBox="0 0 64 100" fill="none" xmlns="http://www.w3.org/2000/svg">
<path d="M61.5522 95.543C50.57 71.6585 45.649 58.1766 30.096 22.4219C31.3445 16.3593 32.6362 5.38809 27.815 10.0037L24.3955 14.8598C21.7085 9.7812 15.6683 0.185466 13.0038 2.43094C10.9604 4.1529 14.113 9.58681 17.2356 13.83C13.895 9.85949 9.55924 5.58804 7.92361 7.08718C5.82173 9.01367 11.8008 16.6051 14.5186 19.7038C11.5602 16.8257 4.34387 10.3682 2.97765 11.6204C1.23989 13.2132 8.48878 23.5373 12.8989 25.397C16.4271 26.8847 39.2274 73.8918 50.1865 97.2094L61.5522 95.543Z" fill="white" stroke="black" stroke-width="4" stroke-linejoin="round"/>
</svg>
