<svg width="70" height="40" viewBox="0 0 70 40" fill="none" xmlns="http://www.w3.org/2000/svg">
<path d="M62.2307 15.006C62.2307 22.3717 57.1572 27.8084 51.5099 27.8084C45.8626 27.8084 40.7891 22.3717 40.7891 15.006C40.7891 7.6403 45.8626 2.20361 51.5099 2.20361C57.1572 2.20361 62.2307 7.6403 62.2307 15.006Z" fill="white" stroke="black" stroke-width="4"/>
<path d="M27.5369 18.7068C27.5369 26.0725 22.4633 31.5092 16.816 31.5092C11.1688 31.5092 6.09521 26.0725 6.09521 18.7068C6.09521 11.341 11.1688 5.90436 16.816 5.90436C22.4633 5.90436 27.5369 11.341 27.5369 18.7068Z" fill="white" stroke="black" stroke-width="4"/>
<path d="M61.3057 13.6187C61.3057 17.8828 58.3343 20.8702 55.2106 20.8702C52.0869 20.8702 49.1155 17.8828 49.1155 13.6187C49.1155 9.35459 52.0869 6.36719 55.2106 6.36719C58.3343 6.36719 61.3057 9.35459 61.3057 13.6187Z" fill="black" stroke="black" stroke-width="4"/>
<path d="M26.6119 17.3191C26.6119 21.5832 23.6405 24.5706 20.5168 24.5706C17.3931 24.5706 14.4218 21.5832 14.4218 17.3191C14.4218 13.055 17.3931 10.0676 20.5168 10.0676C23.6405 10.0676 26.6119 13.055 26.6119 17.3191Z" fill="black" stroke="black" stroke-width="4"/>
<path d="M2.47577 30.2717C3.09254 32.97 6.22263 38.228 13.8089 37.6729" stroke="black" stroke-width="4" stroke-linecap="round" stroke-linejoin="round"/>
<path d="M67.0873 23.7948C66.9167 26.5575 64.6816 32.2538 57.1058 32.9374" stroke="black" stroke-width="4" stroke-linecap="round" stroke-linejoin="round"/>
</svg>
