<svg width="130" height="67" viewBox="0 0 130 67" fill="none" xmlns="http://www.w3.org/2000/svg">
<path d="M47.4463 35.7353L5.37201 5.19406L27.1558 2.84515L53.8527 22.0669L93.7912 18.8633L93.7912 31.8913L47.4463 35.7353Z" fill="white" stroke="black" stroke-width="4"/>
<path d="M110.434 17.8086L107.316 17.7755L107.314 18.0509L107.278 27.5267L107.239 27.8576L110.286 28.285L110.434 17.8086Z" fill="black"/>
<path d="M107.315 17.7764L83.6126 17.5225L86.3897 33.6208L86.547 33.5912L96.0637 32.8894L105.902 64.115C105.902 64.115 109.442 51.875 109.741 41.5685C110.039 31.262 103.532 27.3209 103.532 27.3209L107.253 27.841L107.292 27.5102L107.328 18.0343L107.315 17.7764ZM98.8749 32.9365C99.2087 32.8553 99.5583 32.8814 99.8796 33.0114C100.201 33.1413 100.48 33.3694 100.68 33.6667C100.881 33.964 100.995 34.3172 101.007 34.6818C101.019 35.0463 100.93 35.4057 100.75 35.7147C100.57 36.0237 100.307 36.2683 99.9957 36.4177C99.6839 36.5671 99.3368 36.6146 98.9982 36.5541C98.6596 36.4936 98.3447 36.3278 98.0933 36.0778C97.8419 35.8277 97.6653 35.5046 97.5858 35.1493C97.4796 34.6719 97.5558 34.1706 97.7975 33.7557C98.0392 33.3407 98.4268 33.0461 98.8749 32.9365V32.9365ZM100.392 38.4115C100.726 38.3304 101.075 38.3564 101.397 38.4864C101.718 38.6164 101.997 38.8444 102.197 39.1417C102.398 39.439 102.512 39.7923 102.524 40.1568C102.537 40.5213 102.447 40.8808 102.267 41.1898C102.087 41.4988 101.825 41.7434 101.513 41.8928C101.201 42.0422 100.854 42.0896 100.515 42.0291C100.177 41.9686 99.8618 41.8029 99.6104 41.5528C99.359 41.3028 99.1825 40.9797 99.103 40.6243C99.0503 40.3882 99.0418 40.1436 99.078 39.9047C99.1142 39.6657 99.1944 39.4371 99.314 39.2317C99.4336 39.0264 99.5902 38.8485 99.7749 38.708C99.9596 38.5676 100.169 38.4674 100.391 38.4133L100.392 38.4115ZM101.909 43.8866C102.243 43.8054 102.593 43.8315 102.914 43.9615C103.235 44.0914 103.514 44.3195 103.714 44.6168C103.915 44.9141 104.029 45.2673 104.041 45.6318C104.054 45.9964 103.964 46.3558 103.784 46.6648C103.604 46.9738 103.342 47.2184 103.03 47.3678C102.718 47.5172 102.371 47.5647 102.032 47.5041C101.694 47.4436 101.379 47.2779 101.128 47.0279C100.876 46.7778 100.7 46.4547 100.62 46.0994C100.515 45.6234 100.591 45.1237 100.831 44.7099C101.072 44.2961 101.458 44.0019 101.905 43.8918L101.909 43.8866Z" fill="#FFF500"/>
<path d="M83.3266 17.5176L83.6155 17.5247L107.318 17.7786L110.436 17.8117L110.286 28.2865L107.24 27.8591L103.518 27.339C103.518 27.339 110.028 31.2817 109.727 41.5866C109.427 51.8915 105.889 64.1331 105.889 64.1331L96.0662 32.8849L86.5494 33.5868" stroke="black" stroke-width="4" stroke-linecap="round" stroke-linejoin="round"/>
<path d="M97.5226 34.8961C97.5955 35.222 97.7574 35.5183 97.988 35.7476C98.2185 35.9769 98.5073 36.1289 98.8179 36.1844C99.1284 36.2399 99.4467 36.1964 99.7327 36.0594C100.019 35.9224 100.259 35.6981 100.424 35.4147C100.59 35.1313 100.672 34.8017 100.66 34.4673C100.649 34.133 100.544 33.8091 100.36 33.5364C100.176 33.2637 99.921 33.0546 99.6263 32.9354C99.3316 32.8162 99.0109 32.7923 98.7048 32.8667C98.5012 32.9162 98.309 33.008 98.1394 33.1368C97.9697 33.2657 97.8258 33.429 97.716 33.6175C97.6062 33.806 97.5326 34.016 97.4994 34.2354C97.4662 34.4548 97.4741 34.6793 97.5226 34.8961V34.8961Z" fill="#FFF500" stroke="black" stroke-width="4" stroke-linecap="round" stroke-linejoin="round"/>
<path d="M98.9118 39.9192C98.9847 40.2451 99.1467 40.5414 99.3772 40.7707C99.6078 41 99.8965 41.152 100.207 41.2075C100.518 41.263 100.836 41.2195 101.122 41.0825C101.408 40.9455 101.649 40.7211 101.814 40.4378C101.979 40.1544 102.061 39.8247 102.049 39.4904C102.038 39.1561 101.934 38.8321 101.75 38.5595C101.566 38.2868 101.31 38.0777 101.016 37.9585C100.721 37.8393 100.4 37.8154 100.094 37.8898C99.8904 37.9393 99.6982 38.0311 99.5286 38.1599C99.3589 38.2888 99.215 38.4521 99.1052 38.6406C98.9954 38.8291 98.9218 39.0391 98.8886 39.2585C98.8554 39.4779 98.8633 39.7024 98.9118 39.9192V39.9192Z" fill="#FFF500" stroke="black" stroke-width="4" stroke-linecap="round" stroke-linejoin="round"/>
<path d="M100.302 44.9426C100.375 45.2685 100.537 45.5649 100.767 45.7942C100.998 46.0235 101.286 46.1755 101.597 46.231C101.907 46.2865 102.226 46.243 102.512 46.106C102.798 45.9689 103.038 45.7446 103.204 45.4612C103.369 45.1778 103.451 44.8482 103.439 44.5139C103.428 44.1795 103.324 43.8556 103.14 43.5829C102.956 43.3103 102.7 43.1011 102.405 42.9819C102.111 42.8627 101.79 42.8388 101.484 42.9132C101.073 43.0137 100.717 43.284 100.496 43.6645C100.274 44.0451 100.204 44.5048 100.302 44.9426V44.9426Z" fill="#FFF500" stroke="black" stroke-width="4" stroke-linecap="round" stroke-linejoin="round"/>
</svg>
