<svg width="50" height="100" viewBox="0 0 50 100" fill="none" xmlns="http://www.w3.org/2000/svg">
<path d="M35.629 97.9015C27.5868 72.8735 24.2062 65.1546 11.513 28.2876C6.49627 24.6619 -1.86902 17.4467 4.80387 17.5918L10.6058 18.8611C9.1552 13.3017 7.12432 2.14652 10.6058 2.00149C13.2757 1.89027 14.6232 8.02623 15.1882 13.2642C14.9682 8.07996 15.2783 2.00149 17.497 2.00149C20.3482 2.00149 21.0699 11.6378 21.16 15.7585C21.3963 11.6378 22.3529 2.00149 24.2062 2.00149C26.5634 2.00149 28.1954 14.5103 26.2008 18.8611C24.6051 22.3417 39.5587 72.4008 47.2349 96.9953L35.629 97.9015Z" fill="white" stroke="black" stroke-width="4" stroke-linejoin="round"/>
</svg>
