<svg width="190" height="112" viewBox="0 0 190 112" fill="none" xmlns="http://www.w3.org/2000/svg">
<rect x="1.8349" y="24.55" width="176.955" height="85.5618" rx="3" transform="rotate(-7.26805 1.8349 24.55)" fill="#FFE500" stroke="white" stroke-width="4"/>
<path d="M8.78563 47.431L6.30899 28.0119L25.7281 25.5352C26.0986 35.9425 18.9527 45.1775 8.78563 47.431Z" fill="black" stroke="black" stroke-width="4"/>
<path d="M176.382 26.0568L173.906 6.63771L154.487 9.11435C156.74 19.2815 165.975 26.4273 176.382 26.0568Z" fill="black" stroke="black" stroke-width="4"/>
<path d="M181.17 64.2276L183.647 83.6467L164.228 86.1234C163.857 75.7161 171.003 66.4811 181.17 64.2276Z" fill="black" stroke="black" stroke-width="4"/>
<path d="M13.5338 85.7408L16.0104 105.16L35.4295 102.683C33.1761 92.5162 23.941 85.3703 13.5338 85.7408Z" fill="black" stroke="black" stroke-width="4"/>
<path d="M20.9806 105.613L10.8924 26.5127" stroke="black" stroke-width="4"/>
<path d="M169.965 11.7307L11.7642 31.907" stroke="black" stroke-width="4"/>
<path d="M178.625 79.6348L20.4236 99.811" stroke="black" stroke-width="4"/>
<path d="M179.722 85.3667L169.634 6.26624" stroke="black" stroke-width="4"/>
</svg>
