<svg width="30" height="30" viewBox="0 0 31 29" fill="none" xmlns="http://www.w3.org/2000/svg">
<path d="M14.679 1.1163C15.0271 0.31332 16.1659 0.313319 16.514 1.1163L20.0325 9.23228C20.1796 9.57151 20.5018 9.80191 20.8704 9.83135L29.8841 10.5512C30.7779 10.6226 31.1333 11.7435 30.4439 12.3169L23.641 17.9751C23.3472 18.2195 23.2183 18.6099 23.309 18.9812L25.3789 27.4576C25.5885 28.316 24.6634 29.0045 23.9013 28.5573L16.1026 23.981C15.7901 23.7976 15.4029 23.7976 15.0904 23.981L7.29168 28.5573C6.52962 29.0045 5.60452 28.316 5.81412 27.4576L7.884 18.9812C7.97466 18.6099 7.84581 18.2195 7.55201 17.9751L0.749052 12.3169C0.0596786 11.7435 0.41509 10.6226 1.3089 10.5512L10.3226 9.83135C10.6911 9.80191 11.0134 9.57151 11.1605 9.23228L14.679 1.1163Z" fill="#F2F2F2"/>
</svg>
