<svg width="130" height="120" viewBox="0 0 130 120" fill="none" xmlns="http://www.w3.org/2000/svg">
<path fill-rule="evenodd" clip-rule="evenodd" d="M90.7889 21.2793C88.9361 19.113 87.0834 18.1241 84.2579 18.1241H21.7039C20.2217 18.1241 19.0174 16.9938 18.8785 15.4821L17.9984 4.93329C17.8595 3.33213 16.7015 2.01823 15.1266 1.73097L4.07952 0.0403243C2.18044 -0.246943 0.37399 1.02928 0.0497566 2.95538C-0.274477 4.83911 1.02246 6.67574 2.87522 7.00539C6.9957 7.72673 10.1108 11.1372 10.4568 15.306L14.1308 59.5659C14.6403 65.7822 19.7354 70.581 25.8958 70.581H76.43C82.3125 70.581 87.315 66.2061 88.1487 60.2676L92.549 29.3746C92.9659 26.5537 92.6417 23.4456 90.7889 21.2793Z" fill="url(#paint0_linear_22_1295)"/>
<g filter="url(#filter0_f_22_1295)">
<rect x="22.0284" y="30.7222" width="55.5501" height="33.1801" rx="5" fill="#2AA42B" fill-opacity="0.5"/>
</g>
<g filter="url(#filter1_b_22_1295)">
<mask id="path-3-outside-1_22_1295" maskUnits="userSpaceOnUse" x="27" y="17.6398" width="104" height="103" fill="black">
<rect fill="white" x="27" y="17.6398" width="104" height="103"/>
<path fill-rule="evenodd" clip-rule="evenodd" d="M37.3781 38.3478C34.3057 38.3478 32.2911 39.4232 30.2764 41.7788C28.2617 44.1344 27.9091 47.5142 28.3624 50.5816L33.1473 84.1747C34.0539 90.6321 39.4936 95.3894 45.8902 95.3894H100.841C107.54 95.3894 113.08 90.1712 113.634 83.4116L118.268 27.5888L125.873 26.2574C127.888 25.899 129.298 23.9018 128.946 21.8534C128.593 19.759 126.629 18.3712 124.564 18.6836L112.551 20.522C110.839 20.8344 109.58 22.2631 109.429 24.0042L108.472 35.475C108.32 37.1188 107.011 38.3478 105.399 38.3478H37.3781ZM101.648 103.484C105.879 103.484 109.304 106.966 109.304 111.267C109.304 115.518 105.879 119 101.648 119C97.468 119 94.043 115.518 94.043 111.267C94.043 106.966 97.468 103.484 101.648 103.484ZM44.9857 103.484C49.2166 103.484 52.6416 106.966 52.6416 111.267C52.6416 115.518 49.2166 119 44.9857 119C40.8052 119 37.3803 115.518 37.3803 111.267C37.3803 106.966 40.8052 103.484 44.9857 103.484Z"/>
</mask>
<path fill-rule="evenodd" clip-rule="evenodd" d="M37.3781 38.3478C34.3057 38.3478 32.2911 39.4232 30.2764 41.7788C28.2617 44.1344 27.9091 47.5142 28.3624 50.5816L33.1473 84.1747C34.0539 90.6321 39.4936 95.3894 45.8902 95.3894H100.841C107.54 95.3894 113.08 90.1712 113.634 83.4116L118.268 27.5888L125.873 26.2574C127.888 25.899 129.298 23.9018 128.946 21.8534C128.593 19.759 126.629 18.3712 124.564 18.6836L112.551 20.522C110.839 20.8344 109.58 22.2631 109.429 24.0042L108.472 35.475C108.32 37.1188 107.011 38.3478 105.399 38.3478H37.3781ZM101.648 103.484C105.879 103.484 109.304 106.966 109.304 111.267C109.304 115.518 105.879 119 101.648 119C97.468 119 94.043 115.518 94.043 111.267C94.043 106.966 97.468 103.484 101.648 103.484ZM44.9857 103.484C49.2166 103.484 52.6416 106.966 52.6416 111.267C52.6416 115.518 49.2166 119 44.9857 119C40.8052 119 37.3803 115.518 37.3803 111.267C37.3803 106.966 40.8052 103.484 44.9857 103.484Z" fill="#72DC60" fill-opacity="0.35"/>
<path d="M28.3624 50.5816L29.3517 50.4354L29.3524 50.4406L28.3624 50.5816ZM33.1473 84.1747L34.1373 84.0336L34.1376 84.0356L33.1473 84.1747ZM113.634 83.4116L112.638 83.3299L112.638 83.3289L113.634 83.4116ZM118.268 27.5888L117.271 27.5061C117.309 27.053 117.648 26.6822 118.096 26.6038L118.268 27.5888ZM125.873 26.2574L126.049 27.242L126.046 27.2424L125.873 26.2574ZM128.946 21.8534L127.96 22.0231L127.96 22.0194L128.946 21.8534ZM124.564 18.6836L124.413 17.6951L124.414 17.6949L124.564 18.6836ZM112.551 20.522L112.372 19.5383C112.381 19.5365 112.391 19.535 112.4 19.5335L112.551 20.522ZM109.429 24.0042L108.432 23.9211L108.432 23.9178L109.429 24.0042ZM108.472 35.475L109.468 35.5582L109.467 35.5665L108.472 35.475ZM29.5164 41.1289C30.5811 39.8839 31.6908 38.9245 32.9875 38.2835C34.2902 37.6396 35.7192 37.3478 37.3781 37.3478V39.3478C35.9646 39.3478 34.8502 39.5938 33.8737 40.0764C32.8913 40.5621 31.9863 41.3181 31.0363 42.4288L29.5164 41.1289ZM27.3731 50.7278C26.9004 47.5287 27.2318 43.8001 29.5164 41.1289L31.0363 42.4288C29.2916 44.4688 28.9178 47.4997 29.3517 50.4354L27.3731 50.7278ZM32.1573 84.3157L27.3724 50.7226L29.3524 50.4406L34.1373 84.0336L32.1573 84.3157ZM45.8902 96.3894C38.986 96.3894 33.1317 91.2559 32.157 84.3137L34.1376 84.0356C34.9761 90.0083 40.0011 94.3894 45.8902 94.3894V96.3894ZM100.841 96.3894H45.8902V94.3894H100.841V96.3894ZM114.631 83.4933C114.036 90.7557 108.076 96.3894 100.841 96.3894V94.3894C107.003 94.3894 112.125 89.5868 112.638 83.3299L114.631 83.4933ZM119.265 27.6716L114.631 83.4944L112.638 83.3289L117.271 27.5061L119.265 27.6716ZM126.046 27.2424L118.44 28.5739L118.096 26.6038L125.701 25.2724L126.046 27.2424ZM129.931 21.6838C130.377 24.2721 128.607 26.7867 126.049 27.242L125.698 25.2729C127.169 25.0112 128.22 23.5315 127.96 22.0231L129.931 21.6838ZM124.414 17.6949C127.011 17.302 129.488 19.0472 129.932 21.6874L127.96 22.0194C127.699 20.4709 126.247 19.4405 124.714 19.6724L124.414 17.6949ZM112.4 19.5335L124.413 17.6951L124.715 19.6721L112.703 21.5105L112.4 19.5335ZM108.432 23.9178C108.621 21.7444 110.2 19.9345 112.372 19.5383L112.731 21.5058C111.478 21.7343 110.538 22.7819 110.425 24.0907L108.432 23.9178ZM107.475 35.3919L108.432 23.9211L110.425 24.0874L109.468 35.5581L107.475 35.3919ZM105.399 37.3478C106.471 37.3478 107.37 36.5358 107.476 35.3835L109.467 35.5665C109.271 37.7018 107.551 39.3478 105.399 39.3478V37.3478ZM37.3781 37.3478H105.399V39.3478H37.3781V37.3478ZM108.304 111.267C108.304 107.502 105.311 104.484 101.648 104.484V102.484C106.447 102.484 110.304 106.429 110.304 111.267H108.304ZM101.648 118C105.316 118 108.304 114.977 108.304 111.267H110.304C110.304 116.059 106.443 120 101.648 120V118ZM95.043 111.267C95.043 114.981 98.0358 118 101.648 118V120C96.9002 120 93.043 116.054 93.043 111.267H95.043ZM101.648 104.484C98.0401 104.484 95.043 107.498 95.043 111.267H93.043C93.043 106.434 96.8959 102.484 101.648 102.484V104.484ZM51.6416 111.267C51.6416 107.502 48.6487 104.484 44.9857 104.484V102.484C49.7844 102.484 53.6416 106.429 53.6416 111.267H51.6416ZM44.9857 118C48.653 118 51.6416 114.977 51.6416 111.267H53.6416C53.6416 116.059 49.7802 120 44.9857 120V118ZM38.3803 111.267C38.3803 114.981 41.3731 118 44.9857 118V120C40.2374 120 36.3803 116.054 36.3803 111.267H38.3803ZM44.9857 104.484C41.3773 104.484 38.3803 107.498 38.3803 111.267H36.3803C36.3803 106.434 40.2331 102.484 44.9857 102.484V104.484Z" fill="url(#paint1_linear_22_1295)" mask="url(#path-3-outside-1_22_1295)"/>
</g>
<g filter="url(#filter2_bd_22_1295)">
<mask id="path-5-inside-2_22_1295" fill="white">
<path fill-rule="evenodd" clip-rule="evenodd" d="M53.9485 64.9687H67.9003C70.0157 64.9687 71.6778 63.2276 71.6778 61.128C71.6778 58.9772 70.0157 57.2874 67.9003 57.2874H53.9485C51.8331 57.2874 50.171 58.9772 50.171 61.128C50.171 63.2276 51.8331 64.9687 53.9485 64.9687Z"/>
</mask>
<path fill-rule="evenodd" clip-rule="evenodd" d="M53.9485 64.9687H67.9003C70.0157 64.9687 71.6778 63.2276 71.6778 61.128C71.6778 58.9772 70.0157 57.2874 67.9003 57.2874H53.9485C51.8331 57.2874 50.171 58.9772 50.171 61.128C50.171 63.2276 51.8331 64.9687 53.9485 64.9687Z" fill="url(#paint2_linear_22_1295)"/>
<path d="M53.9485 64.7687H67.9003V65.1687H53.9485V64.7687ZM67.9003 64.7687C69.9004 64.7687 71.4778 63.122 71.4778 61.128H71.8778C71.8778 63.3331 70.131 65.1687 67.9003 65.1687V64.7687ZM71.4778 61.128C71.4778 59.0846 69.9021 57.4874 67.9003 57.4874V57.0874C70.1293 57.0874 71.8778 58.8699 71.8778 61.128H71.4778ZM67.9003 57.4874H53.9485V57.0874H67.9003V57.4874ZM53.9485 57.4874C51.9467 57.4874 50.371 59.0846 50.371 61.128H49.971C49.971 58.8699 51.7195 57.0874 53.9485 57.0874V57.4874ZM50.371 61.128C50.371 63.122 51.9484 64.7687 53.9485 64.7687V65.1687C51.7178 65.1687 49.971 63.3331 49.971 61.128H50.371Z" fill="url(#paint3_linear_22_1295)" fill-opacity="0.5" mask="url(#path-5-inside-2_22_1295)"/>
</g>
<defs>
<filter id="filter0_f_22_1295" x="8.02835" y="16.7222" width="83.5501" height="61.1802" filterUnits="userSpaceOnUse" color-interpolation-filters="sRGB">
<feFlood flood-opacity="0" result="BackgroundImageFix"/>
<feBlend mode="normal" in="SourceGraphic" in2="BackgroundImageFix" result="shape"/>
<feGaussianBlur stdDeviation="7" result="effect1_foregroundBlur_22_1295"/>
</filter>
<filter id="filter1_b_22_1295" x="3.18732" y="-6.36023" width="150.813" height="150.36" filterUnits="userSpaceOnUse" color-interpolation-filters="sRGB">
<feFlood flood-opacity="0" result="BackgroundImageFix"/>
<feGaussianBlur in="BackgroundImageFix" stdDeviation="12"/>
<feComposite in2="SourceAlpha" operator="in" result="effect1_backgroundBlur_22_1295"/>
<feBlend mode="normal" in="SourceGraphic" in2="effect1_backgroundBlur_22_1295" result="shape"/>
</filter>
<filter id="filter2_bd_22_1295" x="35.171" y="42.2874" width="51.5068" height="37.6814" filterUnits="userSpaceOnUse" color-interpolation-filters="sRGB">
<feFlood flood-opacity="0" result="BackgroundImageFix"/>
<feGaussianBlur in="BackgroundImageFix" stdDeviation="7.5"/>
<feComposite in2="SourceAlpha" operator="in" result="effect1_backgroundBlur_22_1295"/>
<feColorMatrix in="SourceAlpha" type="matrix" values="0 0 0 0 0 0 0 0 0 0 0 0 0 0 0 0 0 0 127 0" result="hardAlpha"/>
<feOffset dx="5" dy="5"/>
<feGaussianBlur stdDeviation="5"/>
<feColorMatrix type="matrix" values="0 0 0 0 0.454902 0 0 0 0 0.870588 0 0 0 0 0.376471 0 0 0 0.5 0"/>
<feBlend mode="normal" in2="effect1_backgroundBlur_22_1295" result="effect2_dropShadow_22_1295"/>
<feBlend mode="normal" in="SourceGraphic" in2="effect2_dropShadow_22_1295" result="shape"/>
</filter>
<linearGradient id="paint0_linear_22_1295" x1="92.7104" y1="0" x2="46.6441" y2="70.769" gradientUnits="userSpaceOnUse">
<stop stop-color="#9BF763"/>
<stop offset="1" stop-color="#26AB5B"/>
</linearGradient>
<linearGradient id="paint1_linear_22_1295" x1="112.952" y1="30.3319" x2="48.9944" y2="109.903" gradientUnits="userSpaceOnUse">
<stop stop-color="white" stop-opacity="0.25"/>
<stop offset="1" stop-color="white" stop-opacity="0"/>
</linearGradient>
<linearGradient id="paint2_linear_22_1295" x1="51.6958" y1="58.6744" x2="75.4796" y2="60.8456" gradientUnits="userSpaceOnUse">
<stop stop-color="white"/>
<stop offset="1" stop-color="white" stop-opacity="0.2"/>
</linearGradient>
<linearGradient id="paint3_linear_22_1295" x1="69.3611" y1="59.8641" x2="51.1026" y2="60.1463" gradientUnits="userSpaceOnUse">
<stop stop-color="white"/>
<stop offset="1" stop-color="white" stop-opacity="0"/>
</linearGradient>
</defs>
</svg>
