<svg width="161" height="133" viewBox="0 0 161 133" fill="none" xmlns="http://www.w3.org/2000/svg">
<path d="M78.1346 82.9425C77.4875 84.2742 77.5389 85.841 78.2681 87.1306L88.6293 104.85C89.5062 106.353 89.4204 108.227 88.4116 109.647C87.4425 111.091 85.7271 111.846 84.0047 111.599L63.6436 108.917C62.9333 108.817 62.2108 108.888 61.5278 109.115L60.4809 109.495C60.1375 109.681 59.8244 109.926 59.5647 110.222L45.72 125.396C45.0289 126.128 44.1258 126.626 43.1323 126.818C40.6877 127.218 38.3678 125.598 37.9048 123.168L34.4156 102.948C34.1381 101.481 33.1645 100.241 31.805 99.622L12.9283 91.2022C11.3492 90.4969 10.3241 88.948 10.2982 87.2235C10.2582 85.5084 11.1725 83.9135 12.6763 83.0826L30.8596 73.3186C32.2649 72.637 33.2235 71.2837 33.4015 69.734L35.5395 49.3453C35.5996 48.8867 35.7288 48.4378 35.9319 48.0232L36.181 47.6269C36.2894 47.3604 36.4374 47.1187 36.6199 46.8994L36.9846 46.592L37.5428 46.0832L39.169 45.4916C40.6764 45.1136 42.2718 45.516 43.4131 46.5683L58.2784 60.6841C59.3569 61.72 60.8778 62.1581 62.3421 61.8657L82.5557 57.6613C84.2625 57.3024 86.0267 57.9273 87.1268 59.2741C88.1975 60.6361 88.3805 62.4913 87.5976 64.0384L78.1346 82.9425Z" fill="url(#paint0_linear_22_1316)"/>
<g opacity="0.5" filter="url(#filter0_f_22_1316)">
<path d="M60.3309 72.6887C51.4903 72.6887 44.3154 79.8516 44.3154 88.6737C44.3154 97.499 51.4903 104.659 60.3309 104.659C69.1876 104.659 76.3465 97.499 76.3465 88.6737C76.3465 79.8516 69.1876 72.6887 60.3309 72.6887Z" fill="#FF3D22"/>
</g>
<g filter="url(#filter1_b_22_1316)">
<path d="M125.278 79.9639C123.647 80.9037 122.583 82.5873 122.429 84.4617L120.67 110.459C120.519 112.662 119.091 114.572 117.016 115.347C114.966 116.176 112.624 115.75 110.99 114.265L91.4994 96.9638C90.8239 96.3537 90.0139 95.9141 89.134 95.6666L87.7616 95.3224C87.2677 95.2738 86.7636 95.3085 86.2797 95.4344L60.8914 101.54C59.6424 101.817 58.3368 101.7 57.1558 101.194C54.3003 99.8757 53.0176 96.5232 54.266 93.639L65.0341 69.9008C65.7897 68.1611 65.6516 66.165 64.6644 64.5472L50.8312 42.2697C49.6747 40.4052 49.7028 38.0478 50.9069 36.2164C52.0894 34.385 54.1892 33.3586 56.3634 33.5546L82.4503 36.2226C84.4143 36.5056 86.3883 35.7647 87.6819 34.2621L104.486 14.3485C104.877 13.9091 105.333 13.5291 105.843 13.2378L106.388 12.9983C106.692 12.7951 107.02 12.6463 107.368 12.5456L107.971 12.4819L108.921 12.344L111.053 12.8787C112.908 13.5534 114.298 15.1111 114.746 17.0292L120.296 42.4416C120.69 44.2976 121.976 45.84 123.724 46.574L147.976 56.5308C150.027 57.3675 151.435 59.2791 151.63 61.4775C151.783 63.6708 150.651 65.7513 148.724 66.8209L125.278 79.9639Z" fill="#FFAC95" fill-opacity="0.4"/>
<path d="M121.169 110.493L121.169 110.493C121.005 112.891 119.452 114.968 117.198 115.813C114.97 116.711 112.429 116.247 110.655 114.637C110.654 114.637 110.654 114.636 110.653 114.635L91.1672 97.3377L91.164 97.3348C90.5493 96.7797 89.8106 96.3775 89.0049 96.1497L87.6764 95.8165C87.2498 95.7785 86.8178 95.8109 86.4052 95.9182L86.3963 95.9205L86.3963 95.9204L61.008 102.026L60.9997 102.028L60.9997 102.027C59.649 102.328 58.2366 102.201 56.9586 101.653L56.9458 101.648L56.9459 101.648C53.8445 100.216 52.4506 96.5746 53.807 93.4408L53.8105 93.4328L53.8106 93.4328L64.5754 69.702C64.5759 69.7008 64.5764 69.6996 64.577 69.6983C65.2657 68.1094 65.1393 66.2871 64.2384 64.8094C64.2381 64.8088 64.2377 64.8083 64.2374 64.8077L50.4062 42.5336L50.4061 42.5334C49.1478 40.5048 49.1775 37.9384 50.4878 35.9439C51.7714 33.9574 54.0497 32.844 56.4087 33.0567L56.4147 33.0572L56.4147 33.0573L82.5016 35.7253C82.5085 35.726 82.5153 35.7269 82.5221 35.7278C84.3159 35.9863 86.1191 35.31 87.3013 33.938C87.3018 33.9374 87.3024 33.9368 87.3029 33.9362L104.104 14.0264L104.112 14.0165L104.113 14.0166C104.536 13.5399 105.034 13.1244 105.595 12.8039C105.61 12.7952 105.626 12.7873 105.642 12.7802L106.148 12.5577C106.486 12.3372 106.849 12.1755 107.23 12.0654C107.258 12.0573 107.287 12.0516 107.316 12.0485L107.909 11.9858L108.85 11.8493C108.914 11.8399 108.98 11.8433 109.043 11.8591L111.175 12.3938C111.192 12.398 111.209 12.4031 111.225 12.4089C113.237 13.1409 114.746 14.8315 115.233 16.915L115.235 16.9222L115.235 16.9222L120.784 42.3346L120.785 42.3374C121.145 44.0314 122.319 45.441 123.916 46.1124C123.917 46.1126 123.918 46.1128 123.918 46.1131L148.165 56.0679C148.166 56.0681 148.166 56.0682 148.166 56.0683L148.166 56.0683L121.169 110.493ZM121.169 110.493L122.927 84.5023L121.169 110.493Z" stroke="url(#paint1_linear_22_1316)" stroke-linecap="round" stroke-linejoin="round"/>
</g>
<defs>
<filter id="filter0_f_22_1316" x="24.3154" y="52.6887" width="72.0312" height="71.97" filterUnits="userSpaceOnUse" color-interpolation-filters="sRGB">
<feFlood flood-opacity="0" result="BackgroundImageFix"/>
<feBlend mode="normal" in="SourceGraphic" in2="BackgroundImageFix" result="shape"/>
<feGaussianBlur stdDeviation="10" result="effect1_foregroundBlur_22_1316"/>
</filter>
<filter id="filter1_b_22_1316" x="24.9832" y="-12.6558" width="151.661" height="153.421" filterUnits="userSpaceOnUse" color-interpolation-filters="sRGB">
<feFlood flood-opacity="0" result="BackgroundImageFix"/>
<feGaussianBlur in="BackgroundImageFix" stdDeviation="12"/>
<feComposite in2="SourceAlpha" operator="in" result="effect1_backgroundBlur_22_1316"/>
<feBlend mode="normal" in="SourceGraphic" in2="effect1_backgroundBlur_22_1316" result="shape"/>
</filter>
<linearGradient id="paint0_linear_22_1316" x1="15.6174" y1="76.7357" x2="100.305" y2="156.235" gradientUnits="userSpaceOnUse">
<stop stop-color="#FFA78F"/>
<stop offset="1" stop-color="#F23E2C"/>
</linearGradient>
<linearGradient id="paint1_linear_22_1316" x1="73.0104" y1="15.2333" x2="113.657" y2="109.419" gradientUnits="userSpaceOnUse">
<stop stop-color="white" stop-opacity="0.25"/>
<stop offset="1" stop-color="white" stop-opacity="0"/>
</linearGradient>
</defs>
</svg>
