<svg width="133" height="113" viewBox="0 0 133 113" fill="none" xmlns="http://www.w3.org/2000/svg">
<path fill-rule="evenodd" clip-rule="evenodd" d="M67.8973 40.1922C67.9008 40.1854 67.8805 40.1664 67.89 40.1309L68.1113 39.3C70.3377 29.2708 64.2418 19.2391 54.2912 16.557C44.3407 13.8749 34.0752 19.4966 31.0184 29.3019C30.8955 29.5661 30.8199 29.85 30.7949 30.1406L36.2603 31.6137C36.3831 31.3495 36.4587 31.0657 36.4837 30.775C38.3819 23.6486 45.7122 19.4325 52.8564 21.3581C60.0006 23.2838 64.2532 30.6219 62.355 37.7484C62.2822 38.0363 62.2613 38.3351 62.2933 38.6307L66.4173 39.8041L30.4571 30.1094C25.6975 28.8262 19.7718 30.6003 16.0427 38.6582L7.01962 60.9142C0.15221 77.1894 7.7249 83.7626 19.0824 86.8246L49.8725 95.1254C61.1972 98.1785 71.2637 94.3306 73.1625 78.746L76.4411 54.9414C76.8903 46.2529 72.8673 41.543 68.1733 40.2775L67.8569 40.1922C67.8853 40.1958 67.8953 40.196 67.8973 40.1922Z" fill="url(#paint0_linear_22_1324)"/>
<g opacity="0.5" filter="url(#filter0_f_22_1324)">
<path d="M34.4072 54.0938C36.6434 48.267 42.9136 45.0776 48.9416 46.7008C54.9697 48.3239 58.813 54.2366 57.8504 60.4063L56.4587 69.3267C56.4325 69.4944 56.4194 69.5783 56.4079 69.647C55.1537 77.1568 47.75 81.972 40.3792 80.0718C40.3117 80.0544 40.2298 80.0323 40.066 79.9882C39.9021 79.9441 39.8202 79.922 39.7531 79.9032C32.4243 77.8453 28.4084 69.9551 31.0587 62.8212C31.0829 62.7559 31.1133 62.6767 31.1741 62.5184L34.4072 54.0938Z" fill="#0062FF"/>
</g>
<g filter="url(#filter1_bd_22_1324)">
<path fill-rule="evenodd" clip-rule="evenodd" d="M94.2776 27.6558C94.3841 27.9993 96.0857 35.1237 96.0282 35.4792L89.6037 37.2105C89.4114 36.9462 87.5234 30.1211 87.1271 28.6885L87.0576 28.4374C84.7705 19.8533 75.9434 14.7735 67.3418 17.0914C58.7402 19.4093 53.6214 28.2471 55.9085 36.8313C56.0564 37.1496 58.2298 45.3067 58.2599 45.6568L51.6797 47.43C51.5317 47.1117 49.3583 38.9546 49.3282 38.6045C46.6454 26.5239 53.9831 14.4421 65.9636 11.2137C77.9441 7.98527 90.3055 14.7587 93.9882 26.5698L94.2776 27.6558ZM66.9088 61.5919C64.7262 62.1801 62.4709 60.8332 61.8715 58.5834C61.2722 56.3336 62.5556 54.033 64.7382 53.4448C66.9209 52.8566 69.1761 54.2036 69.7755 56.4533C70.3749 58.7031 69.0914 61.0038 66.9088 61.5919ZM87.7329 51.6318C88.3323 53.8816 90.5876 55.2286 92.7702 54.6404C94.9528 54.0522 96.2363 51.7516 95.6369 49.5018C95.0375 47.252 92.7823 45.905 90.5996 46.4932C88.417 47.0814 87.1336 49.382 87.7329 51.6318Z" fill="url(#paint1_linear_22_1324)"/>
</g>
<g filter="url(#filter2_b_22_1324)">
<mask id="path-4-outside-1_22_1324" maskUnits="userSpaceOnUse" x="32.3924" y="22.7599" width="101.592" height="91.93" fill="black">
<rect fill="white" x="32.3924" y="22.7599" width="101.592" height="91.93"/>
<path fill-rule="evenodd" clip-rule="evenodd" d="M124.83 65.961L114.003 39.1505C109.272 29.8176 102.259 27.3419 96.6089 28.8646L51.2073 41.0997C45.4777 42.6437 40.3622 48.0821 41.2969 58.7437L45.2094 87.4176C47.79 108.549 59.6176 110.818 73.2895 107.134L110.354 97.1459C123.986 93.4722 132.177 83.3634 124.83 65.961ZM67.0276 61.5172C64.845 62.1054 62.5897 60.7584 61.9903 58.5086C61.391 56.2589 62.6744 53.9582 64.857 53.37C67.0396 52.7818 69.2949 54.1288 69.8943 56.3786C70.4937 58.6284 69.2102 60.929 67.0276 61.5172ZM87.8517 51.5571C88.4511 53.8069 90.7064 55.1538 92.889 54.5657C95.0716 53.9775 96.3551 51.6768 95.7557 49.4271C95.1563 47.1773 92.901 45.8303 90.7184 46.4185C88.5358 47.0067 87.2524 49.3073 87.8517 51.5571Z"/>
</mask>
<path fill-rule="evenodd" clip-rule="evenodd" d="M124.83 65.961L114.003 39.1505C109.272 29.8176 102.259 27.3419 96.6089 28.8646L51.2073 41.0997C45.4777 42.6437 40.3622 48.0821 41.2969 58.7437L45.2094 87.4176C47.79 108.549 59.6176 110.818 73.2895 107.134L110.354 97.1459C123.986 93.4722 132.177 83.3634 124.83 65.961ZM67.0276 61.5172C64.845 62.1054 62.5897 60.7584 61.9903 58.5086C61.391 56.2589 62.6744 53.9582 64.857 53.37C67.0396 52.7818 69.2949 54.1288 69.8943 56.3786C70.4937 58.6284 69.2102 60.929 67.0276 61.5172ZM87.8517 51.5571C88.4511 53.8069 90.7064 55.1538 92.889 54.5657C95.0716 53.9775 96.3551 51.6768 95.7557 49.4271C95.1563 47.1773 92.901 45.8303 90.7184 46.4185C88.5358 47.0067 87.2524 49.3073 87.8517 51.5571Z" fill="#3EA0FE" fill-opacity="0.35"/>
<path d="M114.003 39.1505L114.929 38.7737C114.919 38.7474 114.907 38.7215 114.894 38.6962L114.003 39.1505ZM124.83 65.961L123.904 66.3378C123.905 66.3426 123.907 66.3474 123.91 66.3522L124.83 65.961ZM96.6089 28.8646L96.8667 29.8308L96.6089 28.8646ZM51.2073 41.0997L51.4651 42.0659L51.2073 41.0997ZM41.2969 58.7437L40.3014 58.8333C40.3028 58.8493 40.3046 58.8653 40.3067 58.8812L41.2969 58.7437ZM45.2094 87.4176L46.2015 87.2941L46.1996 87.2801L45.2094 87.4176ZM73.2895 107.134L73.0317 106.168L73.0317 106.168L73.2895 107.134ZM110.354 97.1459L110.611 98.1121L110.354 97.1459ZM61.9903 58.5086L61.0247 58.7684L61.9903 58.5086ZM67.0276 61.5172L67.2854 62.4834L67.0276 61.5172ZM64.857 53.37L64.5992 52.4038L64.857 53.37ZM69.8943 56.3786L70.8599 56.1188L69.8943 56.3786ZM92.889 54.5657L92.6312 53.5995L92.889 54.5657ZM87.8517 51.5571L88.8174 51.2973L87.8517 51.5571ZM90.7184 46.4185L90.4606 45.4523L90.7184 46.4185ZM113.076 39.5273L123.904 66.3378L125.757 65.5842L114.929 38.7737L113.076 39.5273ZM96.8667 29.8308C101.961 28.4579 108.543 30.5938 113.111 39.6049L114.894 38.6962C110 29.0414 102.558 26.2259 96.3511 27.8984L96.8667 29.8308ZM51.4651 42.0659L96.8667 29.8308L96.3511 27.8984L50.9494 40.1335L51.4651 42.0659ZM42.2925 58.6541C41.8405 53.4979 42.8583 49.7079 44.5899 47.0477C46.3213 44.388 48.8161 42.7798 51.4651 42.0659L50.9494 40.1335C47.8689 40.9637 44.9412 42.8466 42.9161 45.9575C40.8913 49.0679 39.8187 53.3278 40.3014 58.8333L42.2925 58.6541ZM46.1996 87.2801L42.2871 58.6062L40.3067 58.8812L44.2192 87.5551L46.1996 87.2801ZM73.0317 106.168C66.2691 107.99 60.2152 108.262 55.5734 105.705C50.983 103.176 47.4726 97.7033 46.2014 87.2941L44.2174 87.5411C45.5268 98.2634 49.2205 104.491 54.607 107.459C59.9422 110.398 66.6381 109.962 73.5473 108.1L73.0317 106.168ZM110.096 96.1797L73.0317 106.168L73.5473 108.1L110.611 98.1121L110.096 96.1797ZM123.91 66.3522C127.505 74.869 127.225 81.409 124.584 86.2212C121.928 91.0595 116.758 94.3842 110.096 96.1797L110.611 98.1121C117.581 96.2338 123.324 92.6673 126.335 87.1822C129.36 81.671 129.502 74.4554 125.751 65.5698L123.91 66.3522ZM61.0247 58.7684C61.7591 61.5249 64.5427 63.2226 67.2854 62.4834L66.7698 60.551C65.1473 60.9883 63.4204 59.9919 62.956 58.2488L61.0247 58.7684ZM64.5992 52.4038C61.8568 53.1429 60.2904 56.0122 61.0247 58.7684L62.956 58.2488C62.4915 56.5055 63.492 54.7736 65.1149 54.3362L64.5992 52.4038ZM70.8599 56.1188C70.1256 53.3623 67.3419 51.6647 64.5992 52.4038L65.1149 54.3362C66.7373 53.899 68.4642 54.8953 68.9286 56.6384L70.8599 56.1188ZM67.2854 62.4834C70.0278 61.7444 71.5942 58.875 70.8599 56.1188L68.9286 56.6384C69.3931 58.3818 68.3926 60.1137 66.7697 60.551L67.2854 62.4834ZM92.6312 53.5995C91.0087 54.0367 89.2818 53.0404 88.8174 51.2973L86.8861 51.8169C87.6205 54.5734 90.4041 56.271 93.1468 55.5319L92.6312 53.5995ZM94.79 49.6869C95.2545 51.4302 94.254 53.1621 92.6312 53.5995L93.1468 55.5319C95.8892 54.7928 97.4556 51.9234 96.7213 49.1672L94.79 49.6869ZM90.9763 47.3847C92.5987 46.9474 94.3256 47.9438 94.79 49.6869L96.7213 49.1672C95.987 46.4108 93.2033 44.7131 90.4606 45.4523L90.9763 47.3847ZM88.8174 51.2973C88.3529 49.5539 89.3534 47.822 90.9763 47.3847L90.4606 45.4523C87.7182 46.1913 86.1518 49.0607 86.8861 51.8169L88.8174 51.2973Z" fill="url(#paint2_linear_22_1324)" mask="url(#path-4-outside-1_22_1324)"/>
</g>
<defs>
<filter id="filter0_f_22_1324" x="10.2399" y="26.2791" width="67.7579" height="74.2083" filterUnits="userSpaceOnUse" color-interpolation-filters="sRGB">
<feFlood flood-opacity="0" result="BackgroundImageFix"/>
<feBlend mode="normal" in="SourceGraphic" in2="BackgroundImageFix" result="shape"/>
<feGaussianBlur stdDeviation="10" result="effect1_foregroundBlur_22_1324"/>
</filter>
<filter id="filter1_bd_22_1324" x="33.7758" y="-4.59009" width="77.2538" height="81.3201" filterUnits="userSpaceOnUse" color-interpolation-filters="sRGB">
<feFlood flood-opacity="0" result="BackgroundImageFix"/>
<feGaussianBlur in="BackgroundImageFix" stdDeviation="7.5"/>
<feComposite in2="SourceAlpha" operator="in" result="effect1_backgroundBlur_22_1324"/>
<feColorMatrix in="SourceAlpha" type="matrix" values="0 0 0 0 0 0 0 0 0 0 0 0 0 0 0 0 0 0 127 0" result="hardAlpha"/>
<feOffset dx="5" dy="5"/>
<feGaussianBlur stdDeviation="5"/>
<feColorMatrix type="matrix" values="0 0 0 0 0.15375 0 0 0 0 0.522433 0 0 0 0 0.9 0 0 0 0.5 0"/>
<feBlend mode="normal" in2="effect1_backgroundBlur_22_1324" result="effect2_dropShadow_22_1324"/>
<feBlend mode="normal" in="SourceGraphic" in2="effect2_dropShadow_22_1324" result="shape"/>
</filter>
<filter id="filter2_b_22_1324" x="16.1867" y="3.44507" width="136.4" height="130.136" filterUnits="userSpaceOnUse" color-interpolation-filters="sRGB">
<feFlood flood-opacity="0" result="BackgroundImageFix"/>
<feGaussianBlur in="BackgroundImageFix" stdDeviation="12"/>
<feComposite in2="SourceAlpha" operator="in" result="effect1_backgroundBlur_22_1324"/>
<feBlend mode="normal" in="SourceGraphic" in2="effect1_backgroundBlur_22_1324" result="shape"/>
</filter>
<linearGradient id="paint0_linear_22_1324" x1="87.9658" y1="25.6245" x2="-6.92966" y2="62.3531" gradientUnits="userSpaceOnUse">
<stop stop-color="#39AFFD"/>
<stop offset="1" stop-color="#477FFF"/>
</linearGradient>
<linearGradient id="paint1_linear_22_1324" x1="102.51" y1="13.5398" x2="39.4135" y2="31.4183" gradientUnits="userSpaceOnUse">
<stop stop-color="white"/>
<stop offset="1" stop-color="white" stop-opacity="0.2"/>
</linearGradient>
<linearGradient id="paint2_linear_22_1324" x1="48.5135" y1="50.2021" x2="105.227" y2="99.5322" gradientUnits="userSpaceOnUse">
<stop stop-color="white" stop-opacity="0.25"/>
<stop offset="1" stop-color="white" stop-opacity="0"/>
</linearGradient>
</defs>
</svg>
