<svg width="133" height="133" viewBox="0 0 133 133" fill="none" xmlns="http://www.w3.org/2000/svg">
<path d="M108.462 47.5689L104.564 43.6721C103.049 42.1567 102.182 40.1001 102.182 37.9406V32.3606C102.182 23.3764 94.8745 16.0754 85.8884 16.0754H80.3127C78.1473 16.0754 76.0903 15.204 74.5746 13.6886L70.6229 9.74312C64.2352 3.41086 53.8957 3.41086 47.5622 9.79183L43.6646 13.6886C42.1489 15.204 40.0918 16.0754 37.9265 16.0754H32.3508C23.3647 16.0754 16.0568 23.3764 16.0568 32.3606V37.8811C16.0568 40.1001 15.1906 42.1567 13.6749 43.6721L9.72319 47.6284C3.38963 54.0094 3.44376 64.3521 9.77733 70.6789L13.6749 74.5216C15.1906 76.0911 16.0568 78.1477 16.0568 80.318V85.8872C16.0568 94.8714 23.3647 102.183 32.3508 102.183H37.9265C40.0918 102.183 42.1489 103.044 43.6646 104.559L47.6163 108.516C50.8102 111.655 54.9784 113.219 59.1467 113.219C63.3149 113.219 67.4831 111.655 70.677 108.456L74.5746 104.559C76.0903 103.044 78.1473 102.183 80.3127 102.183H85.8884C94.8745 102.183 102.182 94.8714 102.182 85.8872V80.318C102.182 78.1477 103.049 76.0911 104.564 74.5757L108.408 70.733C108.462 70.6789 108.516 70.6302 108.57 70.5707C111.602 67.4911 113.28 63.3725 113.226 59.0427C113.226 54.713 111.547 50.5997 108.462 47.5689Z" fill="url(#paint0_linear_22_1340)"/>
<g opacity="0.5" filter="url(#filter0_f_22_1340)">
<path d="M91.786 51.4686L89.2055 48.8886C88.202 47.8853 87.6285 46.5236 87.6285 45.0939V41.3994C87.6285 35.4511 82.79 30.6172 76.8404 30.6172H73.1488C71.7152 30.6172 70.3532 30.0403 69.3497 29.0369L66.7333 26.4247C62.5041 22.2322 55.6585 22.2322 51.4651 26.4569L48.8846 29.0369C47.8811 30.0403 46.5191 30.6172 45.0855 30.6172H41.3939C35.4443 30.6172 30.6058 35.4511 30.6058 41.3994V45.0544C30.6058 46.5236 30.0324 47.8853 29.0288 48.8886L26.4124 51.508C22.2191 55.7328 22.2549 62.5805 26.4483 66.7695L29.0288 69.3136C30.0324 70.3528 30.6058 71.7145 30.6058 73.1514V76.8386C30.6058 82.787 35.4443 87.6281 41.3939 87.6281H45.0855C46.5191 87.6281 47.8811 88.1978 48.8846 89.2012L51.501 91.8206C53.6156 93.8989 56.3753 94.9345 59.1351 94.9345C61.8948 94.9345 64.6546 93.8989 66.7692 91.7812L69.3497 89.2012C70.3532 88.1978 71.7152 87.6281 73.1488 87.6281H76.8404C82.79 87.6281 87.6285 82.787 87.6285 76.8386V73.1514C87.6285 71.7145 88.202 70.3528 89.2055 69.3495L91.7502 66.8053C91.786 66.7695 91.8219 66.7372 91.8577 66.6978C93.8648 64.6589 94.9759 61.932 94.94 59.0653C94.94 56.1986 93.8289 53.4753 91.786 51.4686Z" fill="#E46800"/>
</g>
<g filter="url(#filter1_b_22_1340)">
<mask id="path-3-outside-1_22_1340" maskUnits="userSpaceOnUse" x="22.7732" y="22.7812" width="111" height="111" fill="black">
<rect fill="white" x="22.7732" y="22.7812" width="111" height="111"/>
<path d="M127.235 66.3501L123.337 62.4534C121.822 60.938 120.956 58.8813 120.956 56.7219V51.1419C120.956 42.1577 113.648 34.8566 104.662 34.8566H99.0859C96.9205 34.8566 94.8635 33.9853 93.3478 32.4699L89.396 28.5244C83.0084 22.1921 72.6689 22.1921 66.3354 28.5731L62.4378 32.4699C60.9221 33.9853 58.865 34.8566 56.6997 34.8566H51.124C42.1379 34.8566 34.83 42.1577 34.83 51.1419V56.6623C34.83 58.8813 33.9638 60.938 32.4481 62.4534L28.4964 66.4097C22.1628 72.7906 22.217 83.1333 28.5505 89.4602L32.4481 93.3028C33.9638 94.8724 34.83 96.929 34.83 99.0993V104.668C34.83 113.653 42.1379 120.965 51.124 120.965H56.6997C58.865 120.965 60.9221 121.825 62.4378 123.34L66.3895 127.297C69.5834 130.436 73.7516 132 77.9198 132C82.0881 132 86.2563 130.436 89.4502 127.237L93.3478 123.34C94.8635 121.825 96.9205 120.965 99.0859 120.965H104.662C113.648 120.965 120.956 113.653 120.956 104.668V99.0993C120.956 96.929 121.822 94.8724 123.337 93.3569L127.181 89.5143C127.235 89.4602 127.289 89.4115 127.343 89.3519C130.375 86.2724 132.053 82.1537 131.999 77.824C131.999 73.4942 130.321 69.381 127.235 66.3501Z"/>
</mask>
<path d="M127.235 66.3501L123.337 62.4534C121.822 60.938 120.956 58.8813 120.956 56.7219V51.1419C120.956 42.1577 113.648 34.8566 104.662 34.8566H99.0859C96.9205 34.8566 94.8635 33.9853 93.3478 32.4699L89.396 28.5244C83.0084 22.1921 72.6689 22.1921 66.3354 28.5731L62.4378 32.4699C60.9221 33.9853 58.865 34.8566 56.6997 34.8566H51.124C42.1379 34.8566 34.83 42.1577 34.83 51.1419V56.6623C34.83 58.8813 33.9638 60.938 32.4481 62.4534L28.4964 66.4097C22.1628 72.7906 22.217 83.1333 28.5505 89.4602L32.4481 93.3028C33.9638 94.8724 34.83 96.929 34.83 99.0993V104.668C34.83 113.653 42.1379 120.965 51.124 120.965H56.6997C58.865 120.965 60.9221 121.825 62.4378 123.34L66.3895 127.297C69.5834 130.436 73.7516 132 77.9198 132C82.0881 132 86.2563 130.436 89.4502 127.237L93.3478 123.34C94.8635 121.825 96.9205 120.965 99.0859 120.965H104.662C113.648 120.965 120.956 113.653 120.956 104.668V99.0993C120.956 96.929 121.822 94.8724 123.337 93.3569L127.181 89.5143C127.235 89.4602 127.289 89.4115 127.343 89.3519C130.375 86.2724 132.053 82.1537 131.999 77.824C131.999 73.4942 130.321 69.381 127.235 66.3501Z" fill="#FFCBB9" fill-opacity="0.35"/>
<path d="M123.337 62.4534L124.044 61.7462L123.337 62.4534ZM93.3478 32.4699L94.0548 31.7627L94.0543 31.7622L93.3478 32.4699ZM89.396 28.5244L90.1026 27.8167L90.1001 27.8142L89.396 28.5244ZM66.3354 28.5731L67.0424 29.2803L67.0451 29.2775L66.3354 28.5731ZM62.4378 32.4699L63.1448 33.177L62.4378 32.4699ZM32.4481 62.4534L31.7411 61.7462L31.7406 61.7467L32.4481 62.4534ZM28.4964 66.4097L27.7889 65.703L27.7866 65.7052L28.4964 66.4097ZM28.5505 89.4602L27.8438 90.1677L27.8484 90.1723L28.5505 89.4602ZM32.4481 93.3028L33.1674 92.6082C33.1617 92.6023 33.156 92.5965 33.1502 92.5907L32.4481 93.3028ZM62.4378 123.34L63.1453 122.634L63.1448 122.633L62.4378 123.34ZM66.3895 127.297L65.682 128.004L65.6885 128.01L66.3895 127.297ZM89.4502 127.237L88.7431 126.53L88.7426 126.531L89.4502 127.237ZM93.3478 123.34L94.0548 124.048L93.3478 123.34ZM123.337 93.3569L124.044 94.0641V94.0641L123.337 93.3569ZM127.181 89.5143L126.474 88.8071V88.8071L127.181 89.5143ZM127.343 89.3519L126.631 88.6504C126.621 88.6598 126.612 88.6694 126.603 88.6792L127.343 89.3519ZM131.999 77.824H130.999L130.999 77.8365L131.999 77.824ZM127.942 65.643L124.044 61.7462L122.63 63.1605L126.528 67.0573L127.942 65.643ZM124.044 61.7462C122.714 60.4159 121.956 58.6127 121.956 56.7219H119.956C119.956 59.15 120.93 61.46 122.63 63.1605L124.044 61.7462ZM121.956 56.7219V51.1419H119.956V56.7219H121.956ZM121.956 51.1419C121.956 41.6048 114.199 33.8566 104.662 33.8566V35.8566C113.096 35.8566 119.956 42.7106 119.956 51.1419H121.956ZM104.662 33.8566H99.0859V35.8566H104.662V33.8566ZM99.0859 33.8566C97.1904 33.8566 95.3863 33.0939 94.0548 31.7627L92.6407 33.177C94.3407 34.8766 96.6507 35.8566 99.0859 35.8566V33.8566ZM94.0543 31.7622L90.1026 27.8167L88.6895 29.232L92.6412 33.1775L94.0543 31.7622ZM90.1001 27.8142C83.3238 21.0967 72.3515 21.0924 65.6256 27.8686L67.0451 29.2775C72.9864 23.2918 82.6929 23.2875 88.692 29.2346L90.1001 27.8142ZM65.6283 27.8659L61.7308 31.7627L63.1448 33.177L67.0424 29.2803L65.6283 27.8659ZM61.7308 31.7627C60.3992 33.0939 58.5952 33.8566 56.6997 33.8566V35.8566C59.1349 35.8566 61.4449 34.8766 63.1448 33.177L61.7308 31.7627ZM56.6997 33.8566H51.124V35.8566H56.6997V33.8566ZM51.124 33.8566C41.5863 33.8566 33.83 41.6048 33.83 51.1419H35.83C35.83 42.7106 42.6896 35.8566 51.124 35.8566V33.8566ZM33.83 51.1419V56.6623H35.83V51.1419H33.83ZM33.83 56.6623C33.83 58.6166 33.0689 60.4187 31.7411 61.7462L33.1551 63.1605C34.8588 61.4572 35.83 59.1461 35.83 56.6623H33.83ZM31.7406 61.7467L27.7889 65.703L29.2039 67.1164L33.1556 63.1601L31.7406 61.7467ZM27.7866 65.7052C21.0634 72.4788 21.1219 83.4529 27.8438 90.1677L29.2573 88.7527C23.3121 82.8138 23.2622 73.1025 29.2061 67.1141L27.7866 65.7052ZM27.8484 90.1723L31.746 94.0149L33.1502 92.5907L29.2526 88.7481L27.8484 90.1723ZM31.7288 93.9975C33.0727 95.3892 33.83 97.1998 33.83 99.0993H35.83C35.83 96.6582 34.8549 94.3556 33.1674 92.6082L31.7288 93.9975ZM33.83 99.0993V104.668H35.83V99.0993H33.83ZM33.83 104.668C33.83 114.205 41.5854 121.965 51.124 121.965V119.965C42.6904 119.965 35.83 113.101 35.83 104.668H33.83ZM51.124 121.965H56.6997V119.965H51.124V121.965ZM56.6997 121.965C58.5986 121.965 60.4017 122.719 61.7308 124.048L63.1448 122.633C61.4425 120.931 59.1315 119.965 56.6997 119.965V121.965ZM61.7303 124.047L65.682 128.003L67.097 126.59L63.1453 122.634L61.7303 124.047ZM65.6885 128.01C69.0781 131.341 73.5018 133 77.9198 133V131C74.0014 131 70.0886 129.53 67.0905 126.584L65.6885 128.01ZM77.9198 133C82.339 133 86.7663 131.34 90.1578 127.944L88.7426 126.531C85.7463 129.531 81.8372 131 77.9198 131V133ZM90.1572 127.944L94.0548 124.048L92.6407 122.633L88.7431 126.53L90.1572 127.944ZM94.0548 124.048C95.3839 122.719 97.187 121.965 99.0859 121.965V119.965C96.6541 119.965 94.3431 120.931 92.6407 122.633L94.0548 124.048ZM99.0859 121.965H104.662V119.965H99.0859V121.965ZM104.662 121.965C114.2 121.965 121.956 114.205 121.956 104.668H119.956C119.956 113.101 113.095 119.965 104.662 119.965V121.965ZM121.956 104.668V99.0993H119.956V104.668H121.956ZM121.956 99.0993C121.956 97.1969 122.714 95.3939 124.044 94.0641L122.63 92.6498C120.929 94.3508 119.956 96.661 119.956 99.0993H121.956ZM124.044 94.0641L127.888 90.2215L126.474 88.8071L122.63 92.6498L124.044 94.0641ZM127.888 90.2215C127.893 90.2169 128.011 90.1043 128.083 90.0247L126.603 88.6792C126.568 88.7186 126.578 88.7034 126.474 88.8071L127.888 90.2215ZM128.056 90.0535C131.272 86.7859 133.056 82.4111 132.999 77.8115L130.999 77.8365C131.05 81.8964 129.477 85.7588 126.631 88.6504L128.056 90.0535ZM132.999 77.824C132.999 73.2336 131.218 68.8609 127.936 65.6367L126.534 67.0635C129.423 69.901 130.999 73.7549 130.999 77.824H132.999Z" fill="url(#paint1_linear_22_1340)" mask="url(#path-3-outside-1_22_1340)"/>
</g>
<g filter="url(#filter2_bd_22_1340)">
<mask id="path-5-inside-2_22_1340" fill="white">
<path fill-rule="evenodd" clip-rule="evenodd" d="M67.3094 95.1424C66.4433 96.0624 65.2524 96.5495 63.9532 96.5495C62.7081 96.5495 61.5172 96.0624 60.6511 95.1424C58.8105 93.3022 58.8105 90.2714 60.6511 88.4313L88.4754 60.6126C90.316 58.7779 93.2933 58.7779 95.1338 60.6126C96.9743 62.4528 96.9743 65.489 95.1338 67.3291L67.3094 95.1424ZM91.8318 96.5497C89.1793 96.5497 87.0681 94.4389 87.0681 91.787C87.0681 89.1945 89.1793 87.0784 91.8318 87.0784C94.4302 87.0784 96.5414 89.1945 96.5414 91.787C96.5414 94.4389 94.4302 96.5497 91.8318 96.5497ZM68.717 63.9683C68.717 61.3704 66.6058 59.2597 64.0074 59.2597C61.409 59.2597 59.2437 61.3704 59.2437 63.9683C59.2437 66.6257 61.409 68.731 64.0074 68.731C66.6058 68.731 68.717 66.6257 68.717 63.9683Z"/>
</mask>
<path fill-rule="evenodd" clip-rule="evenodd" d="M67.3094 95.1424C66.4433 96.0624 65.2524 96.5495 63.9532 96.5495C62.7081 96.5495 61.5172 96.0624 60.6511 95.1424C58.8105 93.3022 58.8105 90.2714 60.6511 88.4313L88.4754 60.6126C90.316 58.7779 93.2933 58.7779 95.1338 60.6126C96.9743 62.4528 96.9743 65.489 95.1338 67.3291L67.3094 95.1424ZM91.8318 96.5497C89.1793 96.5497 87.0681 94.4389 87.0681 91.787C87.0681 89.1945 89.1793 87.0784 91.8318 87.0784C94.4302 87.0784 96.5414 89.1945 96.5414 91.787C96.5414 94.4389 94.4302 96.5497 91.8318 96.5497ZM68.717 63.9683C68.717 61.3704 66.6058 59.2597 64.0074 59.2597C61.409 59.2597 59.2437 61.3704 59.2437 63.9683C59.2437 66.6257 61.409 68.731 64.0074 68.731C66.6058 68.731 68.717 66.6257 68.717 63.9683Z" fill="url(#paint2_linear_22_1340)"/>
<path d="M67.3094 95.1424L67.0265 94.8593L67.0182 94.8682L67.3094 95.1424ZM60.6511 95.1424L60.9425 94.8681L60.9339 94.8595L60.6511 95.1424ZM60.6511 88.4313L60.9339 88.7141L60.6511 88.4313ZM88.4754 60.6126L88.1931 60.3293L88.1926 60.3297L88.4754 60.6126ZM95.1338 60.6126L95.4166 60.3297L95.4162 60.3293L95.1338 60.6126ZM95.1338 67.3291L95.4166 67.612L95.4166 67.612L95.1338 67.3291ZM63.9532 96.9495C65.3549 96.9495 66.6538 96.4224 67.6007 95.4165L67.0182 94.8682C66.2328 95.7025 65.1498 96.1495 63.9532 96.1495V96.9495ZM60.3598 95.4165C61.305 96.4206 62.603 96.9495 63.9532 96.9495V96.1495C62.8132 96.1495 61.7294 95.7043 60.9423 94.8682L60.3598 95.4165ZM60.3683 88.1484C58.3715 90.1447 58.3715 93.4289 60.3683 95.4252L60.9339 94.8595C59.2496 93.1756 59.2496 90.3981 60.9339 88.7141L60.3683 88.1484ZM88.1926 60.3297L60.3683 88.1484L60.9339 88.7141L88.7583 60.8955L88.1926 60.3297ZM95.4162 60.3293C93.4196 58.339 90.1897 58.339 88.1931 60.3293L88.7578 60.8959C90.4423 59.2168 93.167 59.2168 94.8514 60.8959L95.4162 60.3293ZM95.4166 67.612C97.4134 65.6157 97.4134 62.3261 95.4166 60.3297L94.851 60.8955C96.5353 62.5794 96.5353 65.3623 94.851 67.0463L95.4166 67.612ZM67.5922 95.4253L95.4166 67.612L94.851 67.0462L67.0266 94.8595L67.5922 95.4253ZM86.6681 91.787C86.6681 94.6599 88.9585 96.9497 91.8318 96.9497V96.1497C89.4001 96.1497 87.4681 94.2179 87.4681 91.787H86.6681ZM91.8318 86.6784C88.9612 86.6784 86.6681 88.9709 86.6681 91.787H87.4681C87.4681 89.4182 89.3975 87.4784 91.8318 87.4784V86.6784ZM96.9414 91.787C96.9414 88.9738 94.6513 86.6784 91.8318 86.6784V87.4784C94.2091 87.4784 96.1414 89.4152 96.1414 91.787H96.9414ZM91.8318 96.9497C94.654 96.9497 96.9414 94.6569 96.9414 91.787H96.1414C96.1414 94.2209 94.2064 96.1497 91.8318 96.1497V96.9497ZM64.0074 59.6597C66.385 59.6597 68.317 61.5914 68.317 63.9683H69.117C69.117 61.1494 66.8266 58.8597 64.0074 58.8597V59.6597ZM59.6437 63.9683C59.6437 61.5973 61.6239 59.6597 64.0074 59.6597V58.8597C61.1942 58.8597 58.8437 61.1435 58.8437 63.9683H59.6437ZM64.0074 68.331C61.6266 68.331 59.6437 66.4014 59.6437 63.9683H58.8437C58.8437 66.8499 61.1915 69.131 64.0074 69.131V68.331ZM68.317 63.9683C68.317 66.4074 66.3823 68.331 64.0074 68.331V69.131C66.8293 69.131 69.117 66.844 69.117 63.9683H68.317Z" fill="url(#paint3_linear_22_1340)" mask="url(#path-5-inside-2_22_1340)"/>
</g>
<defs>
<filter id="filter0_f_22_1340" x="0.285278" y="0.284302" width="117.656" height="117.65" filterUnits="userSpaceOnUse" color-interpolation-filters="sRGB">
<feFlood flood-opacity="0" result="BackgroundImageFix"/>
<feBlend mode="normal" in="SourceGraphic" in2="BackgroundImageFix" result="shape"/>
<feGaussianBlur stdDeviation="11.5" result="effect1_foregroundBlur_22_1340"/>
</filter>
<filter id="filter1_b_22_1340" x="-1.22681" y="-1.21875" width="158.227" height="158.219" filterUnits="userSpaceOnUse" color-interpolation-filters="sRGB">
<feFlood flood-opacity="0" result="BackgroundImageFix"/>
<feGaussianBlur in="BackgroundImageFix" stdDeviation="12"/>
<feComposite in2="SourceAlpha" operator="in" result="effect1_backgroundBlur_22_1340"/>
<feBlend mode="normal" in="SourceGraphic" in2="effect1_backgroundBlur_22_1340" result="shape"/>
</filter>
<filter id="filter2_bd_22_1340" x="44.2437" y="44.2366" width="67.2977" height="67.3132" filterUnits="userSpaceOnUse" color-interpolation-filters="sRGB">
<feFlood flood-opacity="0" result="BackgroundImageFix"/>
<feGaussianBlur in="BackgroundImageFix" stdDeviation="7.5"/>
<feComposite in2="SourceAlpha" operator="in" result="effect1_backgroundBlur_22_1340"/>
<feColorMatrix in="SourceAlpha" type="matrix" values="0 0 0 0 0 0 0 0 0 0 0 0 0 0 0 0 0 0 127 0" result="hardAlpha"/>
<feOffset dx="5" dy="5"/>
<feGaussianBlur stdDeviation="5"/>
<feColorMatrix type="matrix" values="0 0 0 0 1 0 0 0 0 0.580392 0 0 0 0 0.247059 0 0 0 0.5 0"/>
<feBlend mode="normal" in2="effect1_backgroundBlur_22_1340" result="effect2_dropShadow_22_1340"/>
<feBlend mode="normal" in="SourceGraphic" in2="effect2_dropShadow_22_1340" result="shape"/>
</filter>
<linearGradient id="paint0_linear_22_1340" x1="59.1134" y1="5" x2="59.1134" y2="113.219" gradientUnits="userSpaceOnUse">
<stop stop-color="#FFB37F"/>
<stop offset="1" stop-color="#FF7B0D"/>
</linearGradient>
<linearGradient id="paint1_linear_22_1340" x1="23.4575" y1="23.0454" x2="109.958" y2="121.948" gradientUnits="userSpaceOnUse">
<stop stop-color="white" stop-opacity="0.4"/>
<stop offset="1" stop-color="white" stop-opacity="0"/>
</linearGradient>
<linearGradient id="paint2_linear_22_1340" x1="93.897" y1="65.9746" x2="52.3509" y2="67.3286" gradientUnits="userSpaceOnUse">
<stop stop-color="white"/>
<stop offset="1" stop-color="white" stop-opacity="0.2"/>
</linearGradient>
<linearGradient id="paint3_linear_22_1340" x1="65.1809" y1="63.5836" x2="88.9848" y2="93.0531" gradientUnits="userSpaceOnUse">
<stop stop-color="white" stop-opacity="0.25"/>
<stop offset="1" stop-color="white" stop-opacity="0"/>
</linearGradient>
</defs>
</svg>
