<svg width="421" height="392" viewBox="0 0 421 392" fill="none" xmlns="http://www.w3.org/2000/svg">
<path d="M220.409 45.9251L317.444 41.2857L333.64 77.1975L223.888 86.9048L185.802 107.142L185.703 121.471L174.85 138.324L164.215 145.342L153.013 151.295L130.61 109.132L67.4071 142.715L60.9881 130.635L63.8181 129.131L79.3828 120.861L220.409 45.9251Z" fill="#FFF500"/>
<path d="M130.61 109.132L67.4071 142.715L60.9881 130.635L63.8181 129.131L79.3828 120.861L220.409 45.9251L317.444 41.2857L333.64 77.1975L223.888 86.9048M130.61 109.132L131.645 100.836M130.61 109.132L153.013 151.295L164.215 145.342M164.215 145.342L136.859 105.811L138.288 98.8252M164.215 145.342L174.85 138.324M174.85 138.324L145.452 105.194L149.483 94.8511M174.85 138.324L185.703 121.471L185.802 107.142M185.802 107.142L176.996 108.784L175.237 116.856M185.802 107.142L223.888 86.9048M175.237 116.856L168.232 116.478M175.237 116.856L180.616 119.01M175.237 116.856L176.293 125.104M223.888 86.9048L222.21 75.4946" stroke="black" stroke-width="4" stroke-linejoin="round"/>
<path d="M264.295 43.7162L220.409 45.9251L79.3828 120.861M130.61 109.132L67.4071 142.715L60.9881 130.635L63.8181 129.131M130.61 109.132L131.645 100.836M130.61 109.132L153.013 151.295L164.215 145.342M164.215 145.342L136.859 105.811L138.288 98.8252M164.215 145.342L174.85 138.324M174.85 138.324L145.452 105.194L149.483 94.8511M174.85 138.324L185.703 121.471L185.802 107.142M185.802 107.142L176.996 108.784L175.237 116.856M185.802 107.142L223.888 86.9048M175.237 116.856L168.232 116.478M175.237 116.856L180.616 119.01M175.237 116.856L176.293 125.104M223.888 86.9048L284.37 81.4967M223.888 86.9048L222.21 75.4946M63.8181 129.131L65.706 132.684L81.2708 124.414L79.3828 120.861M63.8181 129.131L79.3828 120.861" stroke="black" stroke-width="4" stroke-linejoin="round"/>
<path d="M287.035 153.862L409.155 126.58L403.339 164.834L266.749 198.056L227.44 229.359L220.528 222.257L255.343 188.494L203.916 211.246L200.05 200.331L251.948 171.238L196.246 188.571L188.067 175.635L220.868 164.041L214.261 154.924L194.757 154.238L192.683 144.944L230.289 139.446L287.035 153.862Z" fill="#FFE500" stroke="black" stroke-width="4" stroke-linejoin="round"/>
<path d="M409.155 126.58L287.035 153.862L230.289 139.446L192.683 144.944L194.757 154.238L214.261 154.924M403.339 164.834L266.749 198.056L227.44 229.359L220.528 222.257L255.343 188.494L203.916 211.246L200.05 200.331L251.948 171.237L196.246 188.571L188.067 175.635L220.868 164.041M214.261 154.924L243.73 155.961L220.868 164.041M214.261 154.924L220.868 164.041M205.983 201.388L207.396 205.613L216.218 202.018L214.8 198.104L205.983 201.388ZM224.954 221.875L228.173 225.248L234.485 220.344L229.586 217.318L224.954 221.875ZM194.088 177.582L198.541 184.012L208.221 181.645L202.89 175.313L194.088 177.582ZM197.262 147.683L197.931 151.176L205.138 151.814L203.67 146.902L197.262 147.683Z" stroke="black" stroke-width="4" stroke-linejoin="round"/>
<path d="M224.691 285.664L348.844 329.882L339.44 277.753L247.217 261.349C229.208 258.416 173.447 237.442 147.818 227.321L147.162 229.038L97.2407 217.26L96.5554 226.177L91.7881 225.438L91.0655 239.158L99.1105 240.341L99.9631 250.076L153.218 257.256L155.769 261.059L120.098 276.021L125.831 285.645L162.979 271.483L191.523 277.525C200.452 295.367 216.617 291.039 224.691 285.664Z" fill="#FFE500"/>
<path d="M142.027 242.488L147.162 229.038M142.027 242.488L96.2854 229.689L96.5554 226.177M142.027 242.488L153.474 248.334M191.523 277.525C200.452 295.367 216.617 291.039 224.691 285.664L348.844 329.882L339.44 277.753L247.217 261.349C229.208 258.416 173.447 237.442 147.818 227.321L147.162 229.038M191.523 277.525C189.929 274.338 188.565 270.444 187.52 265.723L153.474 248.334M191.523 277.525L162.979 271.483L125.831 285.645L120.098 276.021L155.769 261.059M155.769 261.059L158.367 265.12M155.769 261.059L153.218 257.256L99.9631 250.076L99.1105 240.341M147.162 229.038L97.2407 217.26L96.5554 226.177M96.5554 226.177L91.7881 225.438L91.0655 239.158L99.1105 240.341M153.474 248.334L99.1105 240.341M160.985 236.865L156.659 244.128L148.485 240.407L150.885 232.194L160.985 236.865Z" stroke="black" stroke-width="4"/>
<path d="M157 174C162.333 174.289 176.2 177.493 189 188" stroke="black" stroke-width="4"/>
<path d="M67 179C91.1184 165.682 145.884 139.24 172 140.017" stroke="black" stroke-width="4"/>
<path d="M1 185C20.356 182.209 65.2543 169.902 90 143" stroke="black" stroke-width="4"/>
<path d="M42 208C60.1893 196 106.054 172 144 172" stroke="black" stroke-width="4"/>
</svg>
