<svg width="280" height="195" viewBox="0 0 280 195" fill="none" xmlns="http://www.w3.org/2000/svg">
<path d="M96.2312 76.7901C93.6005 75.3787 87.3317 72.6932 83.3018 73.2422" stroke="black" stroke-width="4"/>
<circle cx="78" cy="100.553" r="1.96477" transform="rotate(8.17154 78 100.553)" fill="black"/>
<circle cx="84.7776" cy="111.555" r="1.96477" transform="rotate(8.17154 84.7776 111.555)" fill="black"/>
<circle cx="93.7495" cy="121.828" r="1.96477" transform="rotate(8.17154 93.7495 121.828)" fill="black"/>
<circle cx="104.067" cy="131.458" r="1.96477" transform="rotate(8.17154 104.067 131.458)" fill="black"/>
<circle cx="113.977" cy="139.567" r="1.96477" transform="rotate(8.17154 113.977 139.567)" fill="black"/>
<mask id="mask0_19_1322" style="mask-type:alpha" maskUnits="userSpaceOnUse" x="12" y="64" width="211" height="119">
<path d="M136.043 100.843C138.799 98.3836 145.654 92.6958 151.027 89.6228C157.742 85.7815 175.973 73.7735 195.269 84.1707C214.565 94.5679 219.203 132.112 220.602 139.103L222.038 155.293L181.244 165.837C181.905 162.395 182.047 157.428 182.424 151.798C183.226 139.801 183.272 124.587 178.869 113.261L141.075 140.742L181.794 152.544L180.834 166.509L193.735 163.243L191.486 178.904L191.339 179.927C185.989 185.176 168.509 182.499 160.438 180.505C152.332 178.505 134.174 173.662 126.385 170.287C117.398 166.907 98.7295 159.755 95.9461 158.185L95.4643 157.176L92.1174 154.292C97.0802 153.926 108.642 151.692 115.186 145.695C123.366 138.199 127.669 133.698 128.351 120.946C128.897 110.745 128.927 106.02 128.875 104.933L136.043 100.843Z" fill="white"/>
<path d="M113.701 68.1442C111.245 76.6205 103.342 79.1682 99.6979 79.3825C98.6666 75.8521 93.619 75.2526 91.2241 75.3941L40.8762 90.4468C31.7528 90.5893 16.6837 103.329 15.0443 155.392C15.5495 164.484 26.5801 179.384 66.66 166.251L69.2322 148.338L41.5952 144.37L45.2257 119.087L82.6554 150.893C84.5234 150.796 89.1159 151.333 92.5417 154.249C96.1591 153.793 104.626 152.161 109.553 149.274C114.481 146.388 119.165 142.364 120.89 140.712C123.019 138.321 127.51 131.314 128.453 122.423L128.812 104.956C151.297 97.7088 128.107 77.3951 113.701 68.1442Z" fill="white"/>
<path d="M89.8529 87.8878C93.4469 96.5773 106.256 112.145 128.741 104.897C151.226 97.6502 128.036 77.3365 113.63 68.0855C111.174 76.5619 103.272 79.1096 99.6274 79.3239L118.454 97.1609" stroke="black" stroke-width="4"/>
<path d="M82.5847 150.834L45.155 119.029L41.5245 144.311L69.1615 148.28L66.5893 166.193C26.5094 179.325 15.4788 164.425 14.9736 155.333C16.613 103.271 31.6822 90.5308 40.8056 90.3883" stroke="black" stroke-width="4"/>
<path d="M120.82 140.654L83.2081 97.7485" stroke="black" stroke-width="4"/>
</mask>
<g mask="url(#mask0_19_1322)">
<rect x="23.7511" y="10.5453" width="261.418" height="169.591" transform="rotate(8.17154 23.7511 10.5453)" fill="#FFF500"/>
<path d="M7.36338 163.796L9.44424 150.71L22.5304 152.791L20.4495 165.877L7.36338 163.796Z" fill="#FFF500"/>
<path d="M11.5251 137.624L13.606 124.538L26.6921 126.619L24.6112 139.705L11.5251 137.624Z" fill="#FFF500"/>
<path d="M15.6868 111.452L17.7677 98.3658L30.8538 100.447L28.7729 113.533L15.6868 111.452Z" fill="#FFF500"/>
<path d="M19.8485 85.2796L21.9294 72.1935L35.0155 74.2743L32.9347 87.3605L19.8485 85.2796Z" fill="#FFF500"/>
<path d="M24.0103 59.1074L26.0911 46.0212L39.1772 48.1021L37.0964 61.1882L24.0103 59.1074Z" fill="#FFF500"/>
<path d="M28.172 32.9351L30.2528 19.849L43.339 21.9298L41.2581 35.0159L28.172 32.9351Z" fill="#FFF500"/>
<path d="M18.369 178.963L20.4499 165.877L33.536 167.958L31.4551 181.044L18.369 178.963Z" fill="#FFF500"/>
<path d="M22.5307 152.791L24.6116 139.705L37.6977 141.786L35.6168 154.872L22.5307 152.791Z" fill="#FFF500"/>
<path d="M26.6925 126.619L28.7733 113.533L41.8594 115.614L39.7786 128.7L26.6925 126.619Z" fill="#FFF500"/>
<path d="M30.8542 100.447L32.935 87.3605L46.0211 89.4414L43.9403 102.527L30.8542 100.447Z" fill="#FFF500"/>
<path d="M35.0159 74.2744L37.0967 61.1883L50.1829 63.2691L48.102 76.3552L35.0159 74.2744Z" fill="#FFF500"/>
<path d="M39.1776 48.1021L41.2585 35.016L54.3446 37.0969L52.2637 50.183L39.1776 48.1021Z" fill="#FFF500"/>
<path d="M33.5354 167.958L35.6163 154.872L48.7024 156.953L46.6216 170.039L33.5354 167.958Z" fill="#FFF500"/>
<path d="M37.6971 141.786L39.778 128.7L52.8641 130.781L50.7833 143.867L37.6971 141.786Z" fill="#FFF500"/>
<path d="M41.8589 115.614L43.9397 102.527L57.0259 104.608L54.945 117.694L41.8589 115.614Z" fill="#FFF500"/>
<path d="M46.0206 89.4413L48.1014 76.3552L61.1876 78.4361L59.1067 91.5222L46.0206 89.4413Z" fill="#FFF500"/>
<path d="M50.1823 63.2691L52.2631 50.183L65.3493 52.2638L63.2684 65.35L50.1823 63.2691Z" fill="#FFF500"/>
<path d="M54.344 37.0968L56.4249 24.0107L69.511 26.0915L67.4301 39.1777L54.344 37.0968Z" fill="#FFF500"/>
<path d="M44.541 183.125L46.6219 170.039L59.708 172.12L57.6272 185.206L44.541 183.125Z" fill="#FFF500"/>
<path d="M48.7027 156.953L50.7836 143.867L63.8697 145.948L61.7888 159.034L48.7027 156.953Z" fill="#FFF500"/>
<path d="M52.8644 130.781L54.9453 117.694L68.0314 119.775L65.9506 132.861L52.8644 130.781Z" fill="#FFF500"/>
<path d="M57.0261 104.608L59.107 91.5222L72.1931 93.603L70.1123 106.689L57.0261 104.608Z" fill="#FFF500"/>
<path d="M61.1879 78.4361L63.2687 65.35L76.3549 67.4308L74.274 80.517L61.1879 78.4361Z" fill="#FFF500"/>
<path d="M65.3496 52.2638L67.4304 39.1777L80.5166 41.2586L78.4357 54.3447L65.3496 52.2638Z" fill="#FFF500"/>
<path d="M59.708 172.12L61.7888 159.034L74.8749 161.115L72.7941 174.201L59.708 172.12Z" fill="#FFF500"/>
<path d="M63.8697 145.948L65.9506 132.861L79.0366 134.942L76.9557 148.029L63.8697 145.948Z" fill="#FFF500"/>
<path d="M68.0314 119.775L70.1123 106.689L83.1983 108.77L81.1175 121.856L68.0314 119.775Z" fill="#FFF500"/>
<path d="M72.1931 93.603L74.274 80.517L87.36 82.5978L85.2792 95.6839L72.1931 93.603Z" fill="#FFF500"/>
<path d="M76.3549 67.4308L78.4357 54.3447L91.5218 56.4256L89.4409 69.5117L76.3549 67.4308Z" fill="#FFF500"/>
<path d="M80.5166 41.2586L82.5974 28.1724L95.6835 30.2533L93.6026 43.3394L80.5166 41.2586Z" fill="#FFF500"/>
<path d="M70.7135 187.287L72.7944 174.201L85.8805 176.282L83.7996 189.368L70.7135 187.287Z" fill="#FFF500"/>
<path d="M74.8752 161.115L76.9561 148.029L90.0422 150.109L87.9613 163.195L74.8752 161.115Z" fill="#FFF500"/>
<path d="M79.0369 134.942L81.1178 121.856L94.2039 123.937L92.1231 137.023L79.0369 134.942Z" fill="#FFF500"/>
<path d="M83.1987 108.77L85.2795 95.6839L98.3657 97.7647L96.2848 110.851L83.1987 108.77Z" fill="#FFF500"/>
<path d="M87.3604 82.5978L89.4412 69.5117L102.527 71.5925L100.446 84.6787L87.3604 82.5978Z" fill="#FFF500"/>
<path d="M91.5221 56.4256L93.6029 43.3394L106.689 45.4203L104.608 58.5064L91.5221 56.4256Z" fill="#FFF500"/>
<path d="M85.88 176.282L87.9609 163.195L101.047 165.276L98.9661 178.362L85.88 176.282Z" fill="#FFF500"/>
<path d="M90.0417 150.109L92.1226 137.023L105.209 139.104L103.128 152.19L90.0417 150.109Z" fill="#FFF500"/>
<path d="M94.2035 123.937L96.2843 110.851L109.37 112.932L107.29 126.018L94.2035 123.937Z" fill="#FFF500"/>
<path d="M98.3652 97.7647L100.446 84.6786L113.532 86.7595L111.451 99.8456L98.3652 97.7647Z" fill="#FFF500"/>
<path d="M102.527 71.5925L104.608 58.5064L117.694 60.5872L115.613 73.6733L102.527 71.5925Z" fill="#FFF500"/>
<path d="M106.689 45.4202L108.769 32.3341L121.856 34.4149L119.775 47.5011L106.689 45.4202Z" fill="#FFF500"/>
<path d="M96.8856 191.449L98.9665 178.362L112.053 180.443L109.972 193.529L96.8856 191.449Z" fill="#FFF500"/>
<path d="M101.047 165.276L103.128 152.19L116.214 154.271L114.133 167.357L101.047 165.276Z" fill="#FFF500"/>
<path d="M105.209 139.104L107.29 126.018L120.376 128.099L118.295 141.185L105.209 139.104Z" fill="#FFF500"/>
<path d="M109.371 112.932L111.452 99.8456L124.538 101.926L122.457 115.013L109.371 112.932Z" fill="#FFF500"/>
<path d="M113.532 86.7595L115.613 73.6734L128.699 75.7542L126.619 88.8403L113.532 86.7595Z" fill="#FFF500"/>
<path d="M117.694 60.5873L119.775 47.5011L132.861 49.582L130.78 62.6681L117.694 60.5873Z" fill="#FFF500"/>
<path d="M112.052 180.443L114.133 167.357L127.219 169.438L125.139 182.524L112.052 180.443Z" fill="#FFF500"/>
<path d="M116.214 154.271L118.295 141.185L131.381 143.266L129.3 156.352L116.214 154.271Z" fill="#FFF500"/>
<path d="M120.376 128.099L122.457 115.013L135.543 117.093L133.462 130.18L120.376 128.099Z" fill="#FFF500"/>
<path d="M124.538 101.926L126.619 88.8403L139.705 90.9212L137.624 104.007L124.538 101.926Z" fill="#FFF500"/>
<path d="M128.699 75.7542L130.78 62.6681L143.866 64.749L141.785 77.8351L128.699 75.7542Z" fill="#FFF500"/>
<path d="M132.861 49.582L134.942 36.4958L148.028 38.5767L145.947 51.6628L132.861 49.582Z" fill="#FFF500"/>
<path d="M123.058 195.61L125.139 182.524L138.225 184.605L136.144 197.691L123.058 195.61Z" fill="#FFF500"/>
<path d="M127.22 169.438L129.301 156.352L142.387 158.433L140.306 171.519L127.22 169.438Z" fill="#FFF500"/>
<path d="M131.381 143.266L133.462 130.18L146.548 132.26L144.468 145.347L131.381 143.266Z" fill="#FFF500"/>
<path d="M135.543 117.093L137.624 104.007L150.71 106.088L148.629 119.174L135.543 117.093Z" fill="#FFF500"/>
<path d="M139.705 90.9212L141.786 77.8351L154.872 79.9159L152.791 93.0021L139.705 90.9212Z" fill="#FFF500"/>
<path d="M143.867 64.749L145.947 51.6629L159.034 53.7437L156.953 66.8298L143.867 64.749Z" fill="#FFF500"/>
<path d="M138.225 184.605L140.306 171.519L153.392 173.6L151.311 186.686L138.225 184.605Z" fill="#FFF500"/>
<path d="M142.387 158.433L144.468 145.347L157.554 147.428L155.473 160.514L142.387 158.433Z" fill="#FFF500"/>
<path d="M146.548 132.26L148.629 119.174L161.715 121.255L159.635 134.341L146.548 132.26Z" fill="#FFF500"/>
<path d="M150.71 106.088L152.791 93.0021L165.877 95.0831L163.796 108.169L150.71 106.088Z" fill="#FFF500"/>
<path d="M154.872 79.9159L156.953 66.8298L170.039 68.9109L167.958 81.997L154.872 79.9159Z" fill="#FFF500"/>
<path d="M159.034 53.7437L161.114 40.6577L174.201 42.7386L172.12 55.8247L159.034 53.7437Z" fill="#FFF500"/>
<path d="M149.231 199.772L151.311 186.686L164.398 188.767L162.317 201.853L149.231 199.772Z" fill="#FFF500"/>
<path d="M153.392 173.6L155.473 160.514L168.559 162.595L166.478 175.681L153.392 173.6Z" fill="#FFF500"/>
<path d="M157.554 147.428L159.635 134.341L172.721 136.422L170.64 149.508L157.554 147.428Z" fill="#FFF500"/>
<path d="M161.716 121.255L163.797 108.169L176.883 110.25L174.802 123.336L161.716 121.255Z" fill="#FFF500"/>
<path d="M165.877 95.0831L167.958 81.997L181.044 84.0779L178.963 97.164L165.877 95.0831Z" fill="#FFF500"/>
<path d="M170.039 68.9108L172.12 55.8247L185.206 57.9056L183.125 70.9917L170.039 68.9108Z" fill="#FFF500"/>
<path d="M164.397 188.767L166.478 175.681L179.564 177.761L177.483 190.848L164.397 188.767Z" fill="#FFF500"/>
<path d="M168.559 162.594L170.64 149.508L183.726 151.589L181.645 164.675L168.559 162.594Z" fill="#FFF500"/>
<path d="M172.72 136.422L174.801 123.336L187.887 125.417L185.807 138.503L172.72 136.422Z" fill="#FFF500"/>
<path d="M176.882 110.25L178.963 97.1637L192.049 99.2446L189.968 112.331L176.882 110.25Z" fill="#FFF500"/>
<path d="M181.044 84.0777L183.125 70.9915L196.211 73.0724L194.13 86.1585L181.044 84.0777Z" fill="#FFF500"/>
<path d="M185.206 57.9054L187.286 44.8192L200.373 46.9001L198.292 59.9862L185.206 57.9054Z" fill="#FFF500"/>
<path d="M175.403 203.934L177.483 190.848L190.57 192.928L188.489 206.015L175.403 203.934Z" fill="#FFF500"/>
<path d="M179.564 177.761L181.645 164.675L194.731 166.756L192.65 179.842L179.564 177.761Z" fill="#FFF500"/>
<path d="M183.726 151.589L185.807 138.503L198.893 140.584L196.812 153.67L183.726 151.589Z" fill="#FFF500"/>
<path d="M187.888 125.417L189.969 112.331L203.055 114.412L200.974 127.498L187.888 125.417Z" fill="#FFF500"/>
<path d="M192.049 99.2446L194.13 86.1585L207.216 88.2394L205.136 101.325L192.049 99.2446Z" fill="#FFF500"/>
<path d="M196.211 73.0724L198.292 59.9863L211.378 62.0671L209.297 75.1532L196.211 73.0724Z" fill="#FFF500"/>
<path d="M190.569 192.928L192.65 179.842L205.736 181.923L203.655 195.009L190.569 192.928Z" fill="#FFF500"/>
<path d="M194.731 166.756L196.812 153.67L209.898 155.751L207.817 168.837L194.731 166.756Z" fill="#FFF500"/>
<path d="M198.892 140.584L200.973 127.498L214.059 129.578L211.979 142.665L198.892 140.584Z" fill="#FFF500"/>
<path d="M203.054 114.412L205.135 101.325L218.221 103.406L216.14 116.492L203.054 114.412Z" fill="#FFF500"/>
<path d="M207.216 88.2393L209.297 75.1532L222.383 77.234L220.302 90.3202L207.216 88.2393Z" fill="#FFF500"/>
<path d="M211.378 62.0671L213.458 48.9809L226.545 51.0618L224.464 64.1479L211.378 62.0671Z" fill="#FFF500"/>
<path d="M201.575 208.095L203.655 195.009L216.742 197.09L214.661 210.176L201.575 208.095Z" fill="#FFF500"/>
<path d="M205.736 181.923L207.817 168.837L220.903 170.918L218.822 184.004L205.736 181.923Z" fill="#FFF500"/>
<path d="M209.898 155.751L211.979 142.665L225.065 144.745L222.984 157.832L209.898 155.751Z" fill="#FFF500"/>
<path d="M214.06 129.579L216.141 116.492L229.227 118.573L227.146 131.659L214.06 129.579Z" fill="#FFF500"/>
<path d="M218.221 103.406L220.302 90.3201L233.388 92.401L231.308 105.487L218.221 103.406Z" fill="#FFF500"/>
<path d="M222.383 77.234L224.464 64.1479L237.55 66.2288L235.469 79.3149L222.383 77.234Z" fill="#FFF500"/>
</g>
<path d="M89.8528 87.8881C93.4467 96.5776 106.256 112.145 128.741 104.898C151.226 97.6505 128.036 77.3368 113.63 68.0858C111.174 76.5622 103.312 78.8466 99.6682 79.0609L118.454 97.1612" stroke="black" stroke-width="4"/>
<path d="M82.5846 150.834L45.1549 119.029L41.5244 144.311L69.1614 148.28L66.5892 166.193C26.5093 179.326 15.4787 164.425 14.9735 155.333C16.6129 103.271 32.039 89.5808 41.1624 89.4382L43.9018 89.4382" stroke="black" stroke-width="4"/>
<path d="M120.82 140.654L83.2081 97.7487" stroke="black" stroke-width="4"/>
<path d="M178.805 112.729C178.013 110.857 177.068 109.297 175.948 108.14M178.805 112.729L141.426 140.479L182.066 152.374M178.805 112.729C182.696 121.92 182.913 138.653 182.066 152.374M182.066 152.374C181.739 157.661 181.255 162.501 180.761 166.29L222.068 155.088C215.211 57.3491 167.013 73.7943 135.81 101.018M90.607 154.997C102.044 153.68 127.456 146.099 128.601 119.206L129.007 104.743M195.312 175.86L193.278 178.87C183.991 191.159 123.811 170.509 95.8588 158.068L80.6037 149.149" stroke="black" stroke-width="4"/>
<path d="M76.0355 47.3345C74.9833 39.4022 63.9074 38.3996 61.4479 46.0141C60.7031 48.3199 57.9005 49.1943 55.9766 47.7211C49.6236 42.8561 41.0828 49.979 44.7279 57.1024C45.8317 59.2595 44.4683 61.8595 42.0662 62.1782C34.1339 63.2304 33.1313 74.3063 40.7457 76.7658C43.0515 77.5106 43.9259 80.3132 42.4527 82.2371C37.5878 88.5901 44.7107 97.1309 51.834 93.4858C53.9912 92.382 56.5912 93.7454 56.9098 96.1475C57.9621 104.08 69.0379 105.082 71.4975 97.468C72.2423 95.1622 75.0449 94.2878 76.9687 95.761C83.3217 100.626 91.8625 93.503 88.2174 86.3797C87.1136 84.2225 88.4771 81.6225 90.8792 81.3039C98.8115 80.2516 99.8141 69.1757 92.1996 66.7162C89.8938 65.9714 89.0194 63.1688 90.4926 61.245C95.3576 54.8919 88.2347 46.3512 81.1113 49.9962C78.9542 51.1001 76.3542 49.7366 76.0355 47.3345Z" fill="black" stroke="black" stroke-width="4"/>
<path d="M66.7474 61.4324C66.4604 63.0989 65.535 64.5878 64.1678 65.5825C62.8006 66.5772 61.0994 66.9993 59.4261 66.759C57.7528 66.5187 56.2392 65.6351 55.2071 64.2958C54.1751 62.9566 53.706 61.2675 53.8995 59.5875" stroke="white" stroke-width="4" stroke-miterlimit="10"/>
<path d="M84.8093 64.0261C84.5647 65.7297 83.6535 67.2664 82.2763 68.2981C80.8991 69.3298 79.1686 69.7721 77.4655 69.5275C75.7624 69.283 74.2263 68.3717 73.195 66.9941C72.1637 65.6165 71.7218 63.8855 71.9664 62.1819" stroke="white" stroke-width="4" stroke-miterlimit="10"/>
<path d="M68.1662 67.8237L67.0258 75.7654" stroke="white" stroke-width="4" stroke-miterlimit="10"/>
<path d="M60.4423 79.0287L60.3941 79.3644C60.2796 80.1618 60.4864 80.9719 60.9691 81.6166C61.4517 82.2613 62.1707 82.6879 62.9678 82.8023L68.6228 83.6144C69.4199 83.7288 70.2298 83.5218 70.8744 83.039C71.5189 82.5561 71.9454 81.8369 72.0598 81.0396L72.1081 80.7039" stroke="white" stroke-width="4" stroke-miterlimit="10"/>
<path d="M74.8348 109.5L60.9785 119.42C63.2477 122.776 69.4365 128.324 76.0383 123.672C82.6402 119.021 77.9867 112.286 74.8348 109.5Z" fill="black" stroke="black" stroke-width="4"/>
<path d="M243.596 193.593L213.298 189.243C200.635 187.424 191.844 175.685 193.662 163.022L209.635 158.734C206.753 180.259 230.981 186.872 238.219 188.12C244.009 189.119 244.216 192.185 243.596 193.593Z" fill="black" stroke="black" stroke-width="4"/>
<circle cx="83.9187" cy="109.536" r="2.37841" transform="rotate(8.17154 83.9187 109.536)" fill="black"/>
<circle cx="92.3642" cy="119.106" r="2.37841" transform="rotate(8.17154 92.3642 119.106)" fill="black"/>
<circle cx="100.753" cy="127.624" r="2.37841" transform="rotate(8.17154 100.753 127.624)" fill="black"/>
<circle cx="109.316" cy="136.375" r="2.37841" transform="rotate(8.17154 109.316 136.375)" fill="black"/>
<path d="M88.8277 149.709L93.0155 160.939L89.0135 163.925L102.51 164.202L102.959 168.143L93.5552 168.157L99.9533 171.351L97.9693 174.073L84.9813 168.169L87.6856 174.02L85.7975 175.015L80.0921 166.856L67.334 162.045L68.6423 152.513L85.6903 147.781L86.518 148.008C87.8121 148.362 88.3972 149.865 87.6833 151.001L86.5967 152.73C79.648 153.724 81.7499 157.643 83.8675 159.625C89.6918 161.791 87.8242 155.993 86.9587 152.73L88.8277 149.709Z" fill="#FFF500"/>
<path d="M87.7685 164.854L89.0135 163.925M89.0135 163.925L93.0155 160.939L88.8277 149.709L86.9587 152.73C87.8242 155.993 89.6918 161.791 83.8675 159.625C81.7499 157.643 79.648 153.724 86.5967 152.73L87.6833 151.001C88.3972 149.865 87.8121 148.362 86.518 148.008L85.6903 147.781L68.6423 152.513L67.334 162.045L80.0921 166.856M89.0135 163.925L102.51 164.202L102.959 168.143L93.5552 168.157M84.9813 168.169L83.3218 168.172L80.0921 166.856M84.9813 168.169L97.9693 174.073L99.9533 171.351L93.5552 168.157M84.9813 168.169L93.5552 168.157M84.9813 168.169L87.6856 174.02L85.7975 175.015L80.0921 166.856" stroke="black" stroke-width="4"/>
<path d="M103.851 48.1395C101.924 63.3598 107.758 68.3929 112.19 71.0235L111.602 71.8811C109.098 75.5336 105.3 78.0996 100.977 79.0607L86.4394 74.3756L84.8131 68.8411L88.2311 69.7138C91.9 72.7296 93.6223 70.1541 94.0248 68.4894C90.7738 61.6162 88.5661 66.0233 87.8686 69.086L84.8237 68.277L87.8204 60.1835L92.1851 60.7442L84.6682 48.1096L87.8204 46.2896L96.8328 59.2788L92.1851 45.8903L94.9843 44.7206L100.315 59.389L101.054 47.857L103.851 48.1395Z" fill="#FFF500" stroke="black" stroke-width="4"/>
<path d="M275.477 38.9773L276.481 43.3099L255.58 60.1501L254.576 55.8151L275.477 38.9773Z" fill="black"/>
<path d="M254.574 55.663L203.713 67.446C202.099 67.8199 201.094 69.4315 201.468 71.0456L201.82 72.5656L255.603 60.1055L254.574 55.663Z" fill="black"/>
<path d="M254.575 55.8153L201.42 68.258L221.913 51.4114L221.957 51.3765L274.467 39.2377L254.575 55.8153Z" stroke="black" stroke-width="4" stroke-linecap="round" stroke-linejoin="round"/>
<path d="M274.536 39.2204L265.966 2.23015L213.069 14.4848L221.639 51.475L221.909 51.4124L274.536 39.2204Z" stroke="black" stroke-width="4" stroke-linecap="round" stroke-linejoin="round"/>
<path d="M223.594 54.0465L229.358 52.7113" stroke="black" stroke-width="4" stroke-linecap="round" stroke-linejoin="round"/>
<path d="M233.852 51.6698L239.616 50.3346" stroke="black" stroke-width="4" stroke-linecap="round" stroke-linejoin="round"/>
<path d="M244.112 49.2934L249.873 47.9586" stroke="black" stroke-width="4" stroke-linecap="round" stroke-linejoin="round"/>
<path d="M254.371 46.9166L260.132 45.5819" stroke="black" stroke-width="4" stroke-linecap="round" stroke-linejoin="round"/>
<path d="M218.863 58.115L224.624 56.7802" stroke="black" stroke-width="4" stroke-linecap="round" stroke-linejoin="round"/>
<path d="M229.12 55.739L234.883 54.4037" stroke="black" stroke-width="4" stroke-linecap="round" stroke-linejoin="round"/>
<path d="M239.379 53.3622L245.142 52.0269" stroke="black" stroke-width="4" stroke-linecap="round" stroke-linejoin="round"/>
<path d="M249.638 50.9852L255.401 49.65" stroke="black" stroke-width="4" stroke-linecap="round" stroke-linejoin="round"/>
<path d="M213.233 62.3912L218.996 61.056" stroke="black" stroke-width="4" stroke-linecap="round" stroke-linejoin="round"/>
<path d="M223.492 60.0147L229.253 58.6799" stroke="black" stroke-width="4" stroke-linecap="round" stroke-linejoin="round"/>
<path d="M233.749 57.6386L239.512 56.3034" stroke="black" stroke-width="4" stroke-linecap="round" stroke-linejoin="round"/>
<path d="M244.007 55.2618L249.771 53.9266" stroke="black" stroke-width="4" stroke-linecap="round" stroke-linejoin="round"/>
<path d="M240.894 40.605L233.372 16.7671L252.977 36.7925L245.455 12.9546" stroke="#FFF500" stroke-width="10" stroke-linecap="round" stroke-linejoin="round"/>
<path d="M175.254 49.5976L178.75 51.7192C180.682 52.8918 181.298 55.4087 180.125 57.341V57.341C178.953 59.2723 176.438 59.8887 174.506 58.7181L168.067 54.8169" stroke="black" stroke-width="4"/>
<path d="M159.616 38.2028L176.069 48.1705L174.986 49.9589C172.233 54.5023 166.319 55.954 161.775 53.2015C157.232 50.449 155.78 44.5345 158.533 39.9912L159.616 38.2028Z" fill="#FFF500" stroke="black" stroke-width="4"/>
</svg>
