<svg width="302" height="152" viewBox="0 0 302 152" fill="none" xmlns="http://www.w3.org/2000/svg">
<path d="M93.6973 91.8578C93.3367 88.2155 92.8289 81.2436 93.1198 77.5086M93.1198 77.5086C93.1879 76.6354 93.2995 75.9391 93.4669 75.5037C94.3504 73.2055 95.6195 86.0926 96.1436 92.8234C98.9383 89.7364 103.27 85.6944 98.2383 94.2225C94.5934 100.4 97.8304 105.535 102.496 109.362M93.1198 77.5086C92.6372 75.7716 91.7486 74.8505 91.115 80.394M91.115 80.394C90.8662 82.5713 90.6566 85.7457 90.5265 90.2596L91.115 80.394ZM91.115 80.394C91.1746 78.1312 90.9634 74.5389 89.6422 78.2719C88.321 82.0048 88.5521 88.9303 88.8328 91.9264C87.2553 89.9962 84.095 85.7501 84.0732 84.2075C84.0461 82.2793 80.296 86.1179 85.8705 94.9681C91.0862 103.249 91.1207 111.212 101.477 120.482" stroke="#FFF500" stroke-width="4"/>
<path d="M264.438 172.681C264.008 161.764 258.959 106.084 263.681 99.7942C268.403 93.5045 270.805 89.3991 271.416 88.1326L269.186 87.161L262.4 93.3999L264.494 71.1447L261.521 69.8493L259.576 92.1692L258.549 68.5539L255.348 69.8118L256.299 91.979L252.109 70.3456L248.927 71.9654L251.935 91.846L244.872 73.5587L243.188 77.423L247.927 92.9286L241.634 80.99L239.302 86.3405L244.013 95.8213L236.582 92.5828L234.509 97.3389L243.602 100.417L251.935 172.258" stroke="#FFF500" stroke-width="4" stroke-linecap="round" stroke-linejoin="round"/>
<path d="M61.773 148.286C57.5837 137.602 33.3232 84.0543 35.9462 76.2481C38.5692 68.442 39.5923 63.5725 39.776 62.1135L37.1825 61.8902L32.4496 70.3315L26.9203 47.5632L23.4623 47.2654L29.1645 70.0486L20.0043 46.9677L17.1926 49.2781L25.7776 70.9482L14.0934 50.8831L11.4255 53.5463L21.3097 72.2651L7.8641 56.4728L7.48594 60.8647L17.619 74.6701L7.13687 64.9187L6.61326 70.9997L14.6473 78.8386L6.00238 78.0942L5.53695 83.4995L15.8107 83.5333L48.9562 152.019" stroke="#FFF500" stroke-width="4" stroke-linecap="round" stroke-linejoin="round"/>
<path d="M229.264 172.821C232.191 163.029 225.295 150.732 221.665 143.764C218.697 138.067 214.078 125.056 219.342 118.579C224.606 112.102 220.284 102.319 217.465 98.2373C213.951 93.6771 209.957 83.2021 222.091 77.7844C237.26 71.0124 213.763 40.4541 222.433 47.9578C231.104 55.4616 238.659 19.1083 237.165 32.9225C235.672 46.7367 229.487 53.8198 242.907 35.1607C256.328 16.5016 233.24 50.3801 238.699 49.5509C244.158 48.7217 260.239 32.4223 255.946 38.8423C251.654 45.2624 237.571 51.4459 244.411 51.4662C251.251 51.4865 260.679 54.85 255.352 55.3415C250.024 55.8329 238.816 49.0517 240.882 57.3275C242.899 62.1344 244.534 73.272 234.937 79.3674C222.94 86.9866 229.648 97.9276 230.986 100.084C232.325 102.239 240.498 111.417 232.982 121.717C226.969 129.956 235.293 142.324 240.52 147.214C246.384 152.702 251.325 158.414 250.65 172.821" stroke="black" stroke-width="4"/>
<path d="M69.684 154.381C71.4159 144.309 63.0969 132.927 58.6576 126.444C55.0288 121.144 48.8836 108.78 53.3334 101.719C57.7832 94.6576 52.3206 85.4632 49.033 81.7487C44.9978 77.6424 39.7767 67.7216 51.1747 60.8889C65.4223 52.348 38.4336 24.8254 47.9404 31.2362C57.4471 37.647 60.5918 0.650332 60.7643 14.544C60.9368 28.4376 55.6453 36.2107 66.7332 16.0779C77.8212 -4.0549 58.9591 32.3461 64.2796 30.8687C69.6001 29.3913 83.6116 11.2825 80.1196 18.1706C76.6276 25.0587 63.3871 32.8852 70.1803 32.0857C76.9736 31.2862 86.7366 33.4958 81.5063 34.6221C76.276 35.7484 64.3357 30.3591 67.3784 38.3277C69.9572 42.8583 72.9152 53.7197 64.1174 60.9212C53.1201 69.923 61.0906 79.9815 62.6779 81.9615C64.2651 83.9415 73.4792 92.0737 67.2512 103.2C62.2689 112.1 72.0148 123.381 77.7902 127.61C84.27 132.355 89.8599 137.434 90.9158 151.819" stroke="black" stroke-width="4"/>
<path d="M225.465 173.103C219.173 161.316 202.839 114.905 205.151 91.4463L218.143 75.3665L214.052 72.1352L206.558 79.8468L209.152 58.445L201.952 57.572L199.07 81.3428L196.879 56.957L187.021 58.8286L193.997 80.7277L181.906 60.6122L174.204 67.304L184.218 81.9459L171.456 75.5911L170.257 85.4751L188.787 92.1976C188.102 112.228 191.375 157.037 199.859 173.103" stroke="#FFF500" stroke-width="4" stroke-linecap="round" stroke-linejoin="round"/>
<path d="M120.084 121.326L136.149 68.9186C134.326 67.9417 132.73 66.592 131.463 64.9575C129.295 62.1963 129.99 61.0941 130.859 61.1836C131.728 61.2731 135.781 65.7153 135.781 65.7153C135.781 65.7153 131.469 59.614 132.853 58.6752C134.238 57.7363 137.707 64.7623 137.707 64.7623C137.707 64.7623 133.547 56.2005 135.307 55.7627C137.067 55.3248 139.094 63.9371 139.094 63.9371C139.094 63.9371 144.218 62.0773 145.927 63.8519C147.635 65.6265 143.593 66.1928 141.896 67.0146C140.199 67.8363 139.218 120.06 139.218 120.06" stroke="#FFF500" stroke-width="4" stroke-linecap="round" stroke-linejoin="round"/>
<path d="M145.728 99.5841C150.045 85.6886 152.822 77.9817 152.493 75.096C152.091 71.579 149.757 71.6701 148.745 68.3138C147.733 64.9575 149.413 62.4318 152.067 63.8015C154.72 65.1712 155.375 69.8445 155.375 69.8445C155.375 69.8445 164.052 58.9622 166.938 61.8162C167.595 62.4667 167.248 63.5703 166.423 64.8091C164.477 67.7498 159.87 71.4213 159.87 71.4213" stroke="black" stroke-width="4" stroke-linecap="round" stroke-linejoin="round"/>
<path d="M169.094 68.2086C169.094 68.2086 172.829 66.2264 172.538 69.4434C172.102 74.3169 161.508 77.9645 161.508 77.9645C161.508 77.9645 161.814 87.6644 160.226 103.075C160.196 103.38 160.164 103.688 160.13 103.998C159.596 109.011 158.864 114.602 157.86 120.642C153.663 145.893 150.615 172.258 150.615 172.258M122.475 172.258C122.475 172.258 136.688 129.968 142.684 109.631C143.76 105.978 144.78 102.636 145.733 99.5947" stroke="black" stroke-width="4" stroke-linecap="round" stroke-linejoin="round"/>
<path d="M118.9 96.3315C118.029 81.807 117.174 73.6597 118.183 70.9364C119.414 67.6172 121.658 68.2634 123.443 65.2463C125.228 62.2292 124.2 59.375 121.296 60.071C118.393 60.767 116.639 65.1482 116.639 65.1482C116.639 65.1482 110.815 52.5078 107.33 54.5893C106.537 55.064 106.611 56.2187 107.116 57.6188C108.302 60.9391 111.898 65.6052 111.898 65.6052" stroke="black" stroke-width="4" stroke-linecap="round" stroke-linejoin="round"/>
<path d="M103.709 60.2814C103.709 60.2814 100.556 57.4642 100.07 60.6574C99.3286 65.494 108.744 71.5675 108.744 71.5675C108.744 71.5675 106.128 80.9132 103.988 96.2564C103.944 96.5604 103.902 96.8671 103.86 97.1764C103.181 102.172 102.556 107.775 102.087 113.88C100.129 139.403 96.3055 172.118 96.3055 172.118M122.053 172.118C122.053 172.118 120.418 127.995 119.455 106.815C119.283 103.01 119.091 99.522 118.893 96.3408" stroke="black" stroke-width="4" stroke-linecap="round" stroke-linejoin="round"/>
<path d="M188.181 98.9873L205.055 94.1112" stroke="#FFF500" stroke-width="4"/>
<path d="M188.181 101.682L205.243 97.8136" stroke="#FFF500" stroke-width="4"/>
<path d="M127.621 56.5967C127.897 51.1164 128.098 42.7556 127.858 34.6992M124.651 12.8182L125.249 8.48181L86.5422 3.1489L85.9447 7.48534M124.651 12.8182L98.6328 9.23347M124.651 12.8182C126.702 16.3416 127.579 25.3138 127.858 34.6992M85.9447 7.48534C83.0797 13.348 81.5325 23.1365 92.2156 24.9264M85.9447 7.48534L98.6328 9.23347M114.29 54.76C115.466 44.5403 115.105 37.5121 113.934 32.7807M92.2156 24.9264C95.1304 25.4147 98.9556 25.3076 103.913 24.3628C107.03 23.1751 111.812 24.2059 113.934 32.7807M92.2156 24.9264C94.3977 23.7382 98.7362 18.9362 98.6328 9.23347M113.934 32.7807L127.858 34.6992M104.456 27.5472L110.608 19.7209M107.813 29.3189L113.621 21.6089M110.87 30.8857L116.617 24.804" stroke="#FFF500" stroke-width="4"/>
<path d="M143.526 58.6525C144.742 53.3017 146.81 45.1982 149.219 37.5068M158.223 17.3082L158.821 12.9718L197.527 18.3047L196.93 22.6411M158.223 17.3082L184.242 20.893M158.223 17.3082C155.296 20.1457 152.026 28.5465 149.219 37.5068M196.93 22.6411C198.103 29.0601 196.945 38.9023 186.176 37.7365M196.93 22.6411L184.242 20.893M156.856 60.4892C158.488 50.3324 160.737 43.6637 163.143 39.4253M186.176 37.7365C183.238 37.4185 179.584 36.2809 175.067 34.0308C172.388 32.0445 167.505 31.7438 163.143 39.4253M186.176 37.7365C184.397 36.0026 181.519 30.2063 184.242 20.893M163.143 39.4253L149.219 37.5068M173.683 36.9496L169.877 27.7513M169.973 37.7476L166.466 28.7543M166.606 38.4293L162.717 31.0199" stroke="black" stroke-width="4"/>
<path d="M179.83 172.821C180.213 165.569 181.913 144.481 182.609 137.257C183.126 131.88 183.951 124.923 182.859 119.643C182.313 117.023 181.608 114.439 180.747 111.907C179.989 109.668 178.507 107.213 178.286 104.843C178.061 102.441 179.833 101.258 180.989 99.4613C181.361 98.8833 181.361 97.9537 180.75 97.6471C180.466 97.5074 180.148 97.5363 179.83 97.5748C177.664 97.8494 175.862 98.2219 173.914 99.2157C173.631 97.0001 173.347 92.9236 172.032 93.0489C170.282 93.2159 171.017 97.0017 171.567 98.7677C170.941 97.5251 169.457 93.0826 168.336 93.0826C165.98 93.0826 168.56 97.9682 169.095 99.479C168.084 98.109 166.934 96.8498 165.663 95.7221C164.948 95.0927 163.634 95.4925 163.516 96.4558C163.429 97.159 163.688 97.8927 164.044 98.4884C164.742 99.6588 166.126 100.596 167.272 101.303C166.501 100.828 164.569 100.68 163.693 100.84C161.301 101.268 163.326 103.034 164.614 103.544C167.764 104.792 170.755 104.162 172.423 107.58C173.51 109.806 175.024 112.753 175.517 115.194C176.034 117.753 175.6 119.62 174.453 121.927C173.854 123.136 172.553 124.164 171.935 125.361C171.073 127.038 157.483 140.789 160.861 158.006L164.122 172.821" stroke="#FFF500" stroke-width="4" stroke-linecap="round" stroke-linejoin="round"/>
</svg>
