<svg width="230" height="288" viewBox="0 0 230 288" fill="none" xmlns="http://www.w3.org/2000/svg">
<path d="M147.194 224.068L105.12 193.527L126.904 191.178L153.601 210.399L193.539 207.196L193.539 220.224L147.194 224.068Z" fill="white" stroke="black" stroke-width="4"/>
<path d="M154.28 105.543C146.238 80.5149 142.857 72.796 130.164 35.929C125.148 32.3033 116.782 25.0881 123.455 25.2331L129.257 26.5025C127.807 20.943 125.776 9.78788 129.257 9.64285C131.927 9.53163 133.275 15.6676 133.84 20.9056C133.619 15.7213 133.93 9.64285 136.148 9.64285C139 9.64285 139.721 19.2792 139.811 23.3998C140.048 19.2792 141.004 9.64285 142.857 9.64285C145.215 9.64285 146.847 22.1517 144.852 26.5025C143.256 29.9831 158.21 80.0422 165.886 104.637L154.28 105.543Z" fill="white"/>
<path d="M154.28 105.543C146.238 80.5149 142.857 72.796 130.164 35.929C125.148 32.3033 116.782 25.0881 123.455 25.2331L129.257 26.5025C127.807 20.943 125.776 9.78788 129.257 9.64285C132.739 9.49782 133.972 19.9759 134.153 25.2331C133.609 20.0364 133.247 9.64285 136.148 9.64285C139.775 9.64285 139.956 25.2331 139.775 25.2331C139.594 25.2331 140.5 9.64285 142.857 9.64285C145.215 9.64285 146.847 22.1517 144.852 26.5025C143.256 29.9831 158.21 80.0422 165.886 104.637L154.28 105.543Z" stroke="black" stroke-width="4" stroke-linejoin="round"/>
<path d="M79.2035 116.184C68.2213 92.2999 63.3003 78.818 47.7473 43.0633C48.9958 37.0007 50.2875 26.0294 45.4662 30.6451L42.0467 35.5011C39.3597 30.4226 33.3196 20.8268 30.655 23.0723C28.6117 24.7943 31.7642 30.2282 34.8869 34.4713C31.5462 30.5008 27.2105 26.2294 25.5749 27.7285C23.473 29.655 29.452 37.2465 32.1698 40.3451C29.2114 37.467 21.9951 31.0096 20.6289 32.2618C18.8911 33.8545 26.14 44.1787 30.5502 46.0383C34.0783 47.526 56.8786 94.5332 67.8377 117.851L79.2035 116.184Z" fill="white"/>
<path d="M79.2035 116.184C68.2213 92.2999 63.3003 78.818 47.7473 43.0633C48.9958 37.0007 50.2875 26.0294 45.4662 30.6451L42.0467 35.5011C39.3597 30.4226 33.3196 20.8268 30.655 23.0723C27.9905 25.3178 34.1613 33.8753 37.5799 37.8734C34.4694 33.675 27.7137 25.7682 25.5749 27.7285C22.9014 30.1789 33.3017 41.7945 33.4354 41.672C33.5691 41.5495 22.3667 30.669 20.6289 32.2618C18.8911 33.8545 26.14 44.1787 30.5502 46.0383C34.0783 47.526 56.8786 94.5332 67.8377 117.851L79.2035 116.184Z" stroke="black" stroke-width="4" stroke-linejoin="round"/>
<path d="M106.304 245.229L145.94 188.332L127.827 190.694L89.0434 245.229H106.304Z" fill="white" stroke="black" stroke-width="4"/>
<rect x="26.2079" y="120.131" width="176.955" height="85.5618" rx="3" transform="rotate(-7.26805 26.2079 120.131)" fill="#FFE500" stroke="white" stroke-width="4"/>
<path d="M50.1011 121.116C50.4716 131.524 43.3257 140.759 33.1586 143.012L30.682 123.593L50.1011 121.116Z" fill="black" stroke="black" stroke-width="4"/>
<path d="M178.86 104.695C181.113 114.863 190.348 122.008 200.755 121.638L198.279 102.219L178.86 104.695Z" fill="black" stroke="black" stroke-width="4"/>
<path d="M188.601 181.704C188.23 171.297 195.376 162.062 205.543 159.809L208.02 179.228L188.601 181.704Z" fill="black" stroke="black" stroke-width="4"/>
<path d="M59.8025 198.264C57.549 188.097 48.314 180.951 37.9067 181.322L40.3834 200.741L59.8025 198.264Z" fill="black" stroke="black" stroke-width="4"/>
<path d="M45.3536 201.194L35.2654 122.094" stroke="black" stroke-width="4"/>
<path d="M194.338 107.312L36.1372 127.488" stroke="black" stroke-width="4"/>
<path d="M202.998 175.216L44.7966 195.392" stroke="black" stroke-width="4"/>
<path d="M204.095 180.948L194.007 101.847" stroke="black" stroke-width="4"/>
<path d="M142.553 110.619C142.553 117.985 137.479 123.422 131.832 123.422C126.185 123.422 121.111 117.985 121.111 110.619C121.111 103.254 126.185 97.8168 131.832 97.8168C137.479 97.8168 142.553 103.254 142.553 110.619Z" fill="white" stroke="black" stroke-width="4"/>
<path d="M107.859 114.32C107.859 121.686 102.786 127.122 97.1384 127.122C91.4911 127.122 86.4176 121.686 86.4176 114.32C86.4176 106.954 91.4911 101.518 97.1384 101.518C102.786 101.518 107.859 106.954 107.859 114.32Z" fill="white" stroke="black" stroke-width="4"/>
<path d="M141.628 109.232C141.628 113.496 138.657 116.483 135.533 116.483C132.409 116.483 129.438 113.496 129.438 109.232C129.438 104.968 132.409 101.98 135.533 101.98C138.657 101.98 141.628 104.968 141.628 109.232Z" fill="black" stroke="black" stroke-width="4"/>
<path d="M106.934 112.932C106.934 117.196 103.963 120.184 100.839 120.184C97.7154 120.184 94.7441 117.196 94.7441 112.932C94.7441 108.668 97.7154 105.681 100.839 105.681C103.963 105.681 106.934 108.668 106.934 112.932Z" fill="black" stroke="black" stroke-width="4"/>
<path d="M76.3223 104.375L95.0566 82.4024" stroke="black" stroke-width="4" stroke-linecap="round" stroke-linejoin="round"/>
<path d="M145.931 94.5542L121.424 79.2855" stroke="black" stroke-width="4" stroke-linecap="round" stroke-linejoin="round"/>
<path d="M82.7981 125.885C83.4149 128.583 86.545 133.841 94.1312 133.286" stroke="black" stroke-width="4" stroke-linecap="round" stroke-linejoin="round"/>
<path d="M147.41 119.408C147.239 122.171 145.004 127.867 137.428 128.551" stroke="black" stroke-width="4" stroke-linecap="round" stroke-linejoin="round"/>
<path d="M210.181 206.141L207.064 206.108L207.062 206.383L207.026 215.859L206.987 216.19L210.034 216.617L210.181 206.141Z" fill="black"/>
<path d="M207.063 206.109L183.36 205.855L186.137 221.953L186.295 221.924L195.811 221.222L205.65 252.447C205.65 252.447 209.19 240.207 209.488 229.901C209.787 219.594 203.279 215.653 203.279 215.653L207.001 216.173L207.039 215.843L207.076 206.367L207.063 206.109ZM198.623 221.269C198.956 221.188 199.306 221.214 199.627 221.344C199.949 221.474 200.227 221.702 200.428 221.999C200.629 222.296 200.742 222.65 200.755 223.014C200.767 223.379 200.678 223.738 200.498 224.047C200.318 224.356 200.055 224.601 199.743 224.75C199.432 224.9 199.084 224.947 198.746 224.887C198.407 224.826 198.092 224.66 197.841 224.41C197.59 224.16 197.413 223.837 197.333 223.482C197.227 223.004 197.303 222.503 197.545 222.088C197.787 221.673 198.174 221.379 198.623 221.269V221.269ZM200.14 226.744C200.473 226.663 200.823 226.689 201.144 226.819C201.466 226.949 201.744 227.177 201.945 227.474C202.146 227.771 202.259 228.125 202.272 228.489C202.284 228.854 202.195 229.213 202.015 229.522C201.835 229.831 201.572 230.076 201.26 230.225C200.949 230.375 200.602 230.422 200.263 230.362C199.924 230.301 199.609 230.135 199.358 229.885C199.107 229.635 198.93 229.312 198.851 228.957C198.798 228.721 198.789 228.476 198.826 228.237C198.862 227.998 198.942 227.77 199.062 227.564C199.181 227.359 199.338 227.181 199.523 227.04C199.707 226.9 199.917 226.8 200.138 226.746L200.14 226.744ZM201.657 232.219C201.991 232.138 202.34 232.164 202.662 232.294C202.983 232.424 203.261 232.652 203.462 232.949C203.663 233.247 203.776 233.6 203.789 233.964C203.801 234.329 203.712 234.688 203.532 234.997C203.352 235.306 203.089 235.551 202.778 235.7C202.466 235.85 202.119 235.897 201.78 235.837C201.441 235.776 201.127 235.61 200.875 235.36C200.624 235.11 200.447 234.787 200.368 234.432C200.262 233.956 200.338 233.456 200.579 233.042C200.82 232.629 201.206 232.334 201.652 232.224L201.657 232.219Z" fill="#FFF500"/>
<path d="M183.074 205.85L183.363 205.857L207.066 206.111L210.183 206.144L210.034 216.619L206.987 216.192L203.266 215.671C203.266 215.671 209.775 219.614 209.475 229.919C209.175 240.224 205.637 252.466 205.637 252.466L195.814 221.217L186.297 221.919" stroke="black" stroke-width="4" stroke-linecap="round" stroke-linejoin="round"/>
<path d="M197.27 223.229C197.343 223.554 197.505 223.851 197.736 224.08C197.966 224.309 198.255 224.461 198.566 224.517C198.876 224.572 199.194 224.529 199.48 224.392C199.766 224.255 200.007 224.031 200.172 223.747C200.337 223.464 200.419 223.134 200.408 222.8C200.396 222.465 200.292 222.142 200.108 221.869C199.924 221.596 199.669 221.387 199.374 221.268C199.079 221.149 198.759 221.125 198.452 221.199C198.249 221.249 198.057 221.34 197.887 221.469C197.717 221.598 197.573 221.761 197.464 221.95C197.354 222.138 197.28 222.348 197.247 222.568C197.214 222.787 197.222 223.012 197.27 223.229V223.229Z" fill="#FFF500" stroke="black" stroke-width="4" stroke-linecap="round" stroke-linejoin="round"/>
<path d="M198.659 228.252C198.732 228.578 198.894 228.874 199.125 229.103C199.355 229.333 199.644 229.485 199.955 229.54C200.265 229.596 200.584 229.552 200.87 229.415C201.156 229.278 201.396 229.054 201.561 228.77C201.726 228.487 201.808 228.157 201.797 227.823C201.786 227.489 201.681 227.165 201.497 226.892C201.313 226.619 201.058 226.41 200.763 226.291C200.468 226.172 200.148 226.148 199.842 226.222C199.638 226.272 199.446 226.364 199.276 226.492C199.107 226.621 198.963 226.785 198.853 226.973C198.743 227.162 198.669 227.372 198.636 227.591C198.603 227.81 198.611 228.035 198.659 228.252V228.252Z" fill="#FFF500" stroke="black" stroke-width="4" stroke-linecap="round" stroke-linejoin="round"/>
<path d="M200.049 233.275C200.122 233.601 200.284 233.897 200.515 234.127C200.745 234.356 201.034 234.508 201.345 234.563C201.655 234.619 201.973 234.575 202.259 234.438C202.545 234.301 202.786 234.077 202.951 233.794C203.116 233.51 203.198 233.181 203.187 232.846C203.176 232.512 203.071 232.188 202.887 231.915C202.703 231.643 202.448 231.434 202.153 231.314C201.858 231.195 201.538 231.171 201.232 231.246C200.821 231.346 200.465 231.616 200.243 231.997C200.022 232.378 199.952 232.837 200.049 233.275V233.275Z" fill="#FFF500" stroke="black" stroke-width="4" stroke-linecap="round" stroke-linejoin="round"/>
<path d="M93.0857 264.317L94.9774 261.697L94.7721 261.527L87.6963 255.711L87.4717 255.476L85.3273 257.795L93.0857 264.317Z" fill="black"/>
<path d="M94.9775 261.697L109.361 241.777L95.6404 234.3L95.5684 234.451L90.3953 242.94L61.1153 232.206C61.1153 232.206 68.1635 242.678 75.7044 249.224C83.2454 255.77 90.0942 252.664 90.0942 252.664L87.4763 255.499L87.7008 255.733L94.7766 261.55L94.9775 261.697ZM88.6766 245.292C88.5375 245.624 88.3086 245.904 88.0189 246.097C87.7291 246.29 87.3915 246.386 87.0486 246.375C86.7058 246.363 86.3731 246.244 86.0926 246.032C85.8121 245.82 85.5965 245.524 85.4728 245.183C85.3492 244.842 85.3232 244.471 85.398 244.115C85.4728 243.76 85.6451 243.437 85.8932 243.187C86.1413 242.937 86.454 242.772 86.7918 242.712C87.1296 242.651 87.4774 242.699 87.7911 242.849C88.2123 243.05 88.5421 243.421 88.7082 243.879C88.8743 244.337 88.8629 244.845 88.6766 245.292V245.292ZM83.6673 243.234C83.5282 243.566 83.2993 243.846 83.0095 244.039C82.7197 244.232 82.3821 244.328 82.0393 244.317C81.6964 244.305 81.3637 244.186 81.0833 243.974C80.8028 243.762 80.5871 243.466 80.4635 243.125C80.3398 242.784 80.3138 242.412 80.3886 242.057C80.4634 241.702 80.6357 241.379 80.8838 241.129C81.1319 240.879 81.4446 240.714 81.7824 240.654C82.1202 240.593 82.468 240.641 82.7817 240.791C82.9902 240.89 83.1784 241.032 83.3357 241.209C83.493 241.386 83.6162 241.593 83.6984 241.82C83.7806 242.046 83.8201 242.288 83.8147 242.53C83.8093 242.772 83.759 243.01 83.6668 243.231L83.6673 243.234ZM78.6579 241.175C78.5188 241.508 78.2899 241.788 78.0001 241.981C77.7104 242.173 77.3727 242.27 77.0299 242.259C76.687 242.247 76.3544 242.128 76.0739 241.916C75.7934 241.704 75.5777 241.408 75.4541 241.067C75.3304 240.726 75.3044 240.354 75.3792 239.999C75.454 239.644 75.6264 239.321 75.8744 239.071C76.1225 238.821 76.4352 238.656 76.773 238.595C77.1108 238.535 77.4586 238.583 77.7724 238.733C78.1921 238.934 78.5208 239.303 78.6865 239.76C78.8523 240.217 78.8415 240.723 78.6566 241.169L78.6579 241.175Z" fill="#FFF500"/>
<path d="M109.535 241.538L109.357 241.778L94.9728 261.698L93.0811 264.318L85.3249 257.795L87.4694 255.476L90.0872 252.642C90.0872 252.642 83.2362 255.747 75.6975 249.201C68.1587 242.655 61.1083 232.184 61.1083 232.184L90.3958 242.944L95.5689 234.455" stroke="black" stroke-width="4" stroke-linecap="round" stroke-linejoin="round"/>
<path d="M88.0192 242.949C87.7315 242.812 87.4125 242.768 87.1027 242.823C86.7929 242.879 86.5061 243.03 86.2786 243.26C86.0511 243.489 85.893 243.785 85.8244 244.111C85.7558 244.437 85.7797 244.777 85.8931 245.09C86.0065 245.403 86.2043 245.674 86.4615 245.868C86.7187 246.063 87.0239 246.172 87.3383 246.183C87.6527 246.194 87.9623 246.105 88.2281 245.928C88.4938 245.751 88.7037 245.494 88.8313 245.19C88.9162 244.987 88.9625 244.768 88.9676 244.546C88.9727 244.323 88.9365 244.102 88.8611 243.894C88.7856 243.686 88.6725 243.495 88.528 243.333C88.3836 243.171 88.2107 243.04 88.0192 242.949V242.949Z" fill="#FFF500" stroke="black" stroke-width="4" stroke-linecap="round" stroke-linejoin="round"/>
<path d="M83.4253 241.058C83.1375 240.921 82.8186 240.877 82.5088 240.933C82.199 240.988 81.9122 241.14 81.6847 241.369C81.4571 241.598 81.2991 241.894 81.2305 242.22C81.1619 242.546 81.1858 242.887 81.2992 243.199C81.4126 243.512 81.6104 243.783 81.8676 243.977C82.1248 244.172 82.4299 244.281 82.7443 244.292C83.0588 244.303 83.3684 244.214 83.6342 244.037C83.8999 243.86 84.1098 243.603 84.2374 243.299C84.3223 243.096 84.3686 242.877 84.3737 242.655C84.3788 242.432 84.3426 242.211 84.2671 242.003C84.1917 241.795 84.0785 241.604 83.9341 241.442C83.7896 241.28 83.6167 241.15 83.4253 241.058V241.058Z" fill="#FFF500" stroke="black" stroke-width="4" stroke-linecap="round" stroke-linejoin="round"/>
<path d="M78.8284 239.169C78.5406 239.032 78.2216 238.988 77.9118 239.044C77.602 239.099 77.3153 239.251 77.0877 239.48C76.8602 239.709 76.7021 240.005 76.6335 240.331C76.5649 240.657 76.5888 240.998 76.7022 241.311C76.8156 241.623 77.0134 241.894 77.2706 242.089C77.5279 242.283 77.833 242.393 78.1474 242.403C78.4618 242.414 78.7715 242.325 79.0372 242.148C79.303 241.972 79.5129 241.715 79.6405 241.41C79.8113 241 79.8217 240.534 79.6694 240.114C79.5171 239.694 79.2146 239.354 78.8284 239.169V239.169Z" fill="#FFF500" stroke="black" stroke-width="4" stroke-linecap="round" stroke-linejoin="round"/>
</svg>
