<svg width="57" height="37" viewBox="0 0 57 37" fill="none" xmlns="http://www.w3.org/2000/svg">
<path d="M13.448 27.384C11.016 27.384 8.824 26.84 6.872 25.752C4.92 24.664 3.368 23.128 2.216 21.144C1.096 19.16 0.536 16.808 0.536 14.088C0.536 11.4 1.096 9.064 2.216 7.08C3.368 5.096 4.92 3.56 6.872 2.472C8.824 1.352 11.016 0.792 13.448 0.792C15.72 0.792 17.656 1.272 19.256 2.232C20.888 3.192 22.136 4.648 23 6.6C23.864 8.552 24.296 11.048 24.296 14.088C24.296 17.096 23.848 19.592 22.952 21.576C22.056 23.528 20.792 24.984 19.16 25.944C17.528 26.904 15.624 27.384 13.448 27.384ZM14.744 21.24C15.96 21.24 17.064 20.952 18.056 20.376C19.048 19.8 19.832 18.984 20.408 17.928C21.016 16.84 21.32 15.56 21.32 14.088C21.32 12.584 21.016 11.304 20.408 10.248C19.832 9.192 19.048 8.376 18.056 7.8C17.064 7.224 15.96 6.936 14.744 6.936C13.496 6.936 12.376 7.224 11.384 7.8C10.392 8.376 9.592 9.192 8.984 10.248C8.408 11.304 8.12 12.584 8.12 14.088C8.12 15.56 8.408 16.84 8.984 17.928C9.592 18.984 10.392 19.8 11.384 20.376C12.376 20.952 13.496 21.24 14.744 21.24ZM21.176 36.312V21.768L21.656 14.136L21.512 6.456V1.176H28.664V36.312H21.176Z" fill="#605E5E"/>
<path d="M44.2846 27.384C42.0766 27.384 39.9486 27.128 37.9006 26.616C35.8846 26.072 34.2846 25.4 33.1006 24.6L35.5966 19.224C36.7806 19.96 38.1726 20.568 39.7726 21.048C41.4046 21.496 43.0046 21.72 44.5726 21.72C46.3006 21.72 47.5166 21.512 48.2206 21.096C48.9566 20.68 49.3246 20.104 49.3246 19.368C49.3246 18.76 49.0366 18.312 48.4606 18.024C47.9166 17.704 47.1806 17.464 46.2526 17.304C45.3246 17.144 44.3006 16.984 43.1806 16.824C42.0926 16.664 40.9886 16.456 39.8686 16.2C38.7486 15.912 37.7246 15.496 36.7966 14.952C35.8686 14.408 35.1166 13.672 34.5406 12.744C33.9966 11.816 33.7246 10.616 33.7246 9.144C33.7246 7.512 34.1886 6.072 35.1166 4.824C36.0766 3.576 37.4526 2.6 39.2446 1.896C41.0366 1.16 43.1806 0.792 45.6766 0.792C47.4366 0.792 49.2286 0.983999 51.0526 1.368C52.8766 1.752 54.3966 2.312 55.6126 3.048L53.1166 8.376C51.8686 7.64 50.6046 7.144 49.3246 6.888C48.0766 6.6 46.8606 6.456 45.6766 6.456C44.0126 6.456 42.7966 6.68 42.0286 7.128C41.2606 7.576 40.8766 8.152 40.8766 8.856C40.8766 9.496 41.1486 9.976 41.6926 10.296C42.2686 10.616 43.0206 10.872 43.9486 11.064C44.8766 11.256 45.8846 11.432 46.9726 11.592C48.0926 11.72 49.2126 11.928 50.3326 12.216C51.4526 12.504 52.4606 12.92 53.3566 13.464C54.2846 13.976 55.0366 14.696 55.6126 15.624C56.1886 16.52 56.4766 17.704 56.4766 19.176C56.4766 20.776 55.9966 22.2 55.0366 23.448C54.0766 24.664 52.6846 25.624 50.8606 26.328C49.0686 27.032 46.8766 27.384 44.2846 27.384Z" fill="#FFE500"/>
</svg>
