<svg width="307" height="207" viewBox="0 0 307 207" fill="none" xmlns="http://www.w3.org/2000/svg">
<path d="M175.409 45.9251L272.444 41.2858L288.64 77.1976L178.888 86.9048L140.802 107.142L140.703 121.471L129.85 138.324L119.215 145.342L108.013 151.295L85.6095 109.132L22.4071 142.715L15.9881 130.635L18.818 129.131L34.3828 120.861L175.409 45.9251Z" fill="#FFF500"/>
<path d="M85.6095 109.132L22.4071 142.715L15.9881 130.635L18.818 129.131L34.3828 120.861L175.409 45.9251L272.444 41.2858L288.64 77.1976L178.888 86.9048M85.6095 109.132L86.645 100.836M85.6095 109.132L108.013 151.295L119.215 145.342M119.215 145.342L91.859 105.811L93.288 98.8252M119.215 145.342L129.85 138.324M129.85 138.324L100.452 105.194L104.483 94.8512M129.85 138.324L140.703 121.471L140.802 107.142M140.802 107.142L131.996 108.784L130.237 116.856M140.802 107.142L178.888 86.9048M130.237 116.856L123.232 116.478M130.237 116.856L135.616 119.01M130.237 116.856L131.293 125.104M178.888 86.9048L177.21 75.4947" stroke="black" stroke-width="4" stroke-linejoin="round"/>
<path d="M219.295 43.7163L175.409 45.9251L34.3828 120.861M85.6095 109.132L22.4071 142.715L15.9881 130.635L18.818 129.131M85.6095 109.132L86.645 100.836M85.6095 109.132L108.013 151.295L119.215 145.342M119.215 145.342L91.859 105.811L93.2879 98.8252M119.215 145.342L129.85 138.324M129.85 138.324L100.452 105.194L104.483 94.8512M129.85 138.324L140.703 121.471L140.801 107.142M140.801 107.142L131.996 108.784L130.237 116.856M140.801 107.142L178.888 86.9049M130.237 116.856L123.232 116.478M130.237 116.856L135.616 119.01M130.237 116.856L131.293 125.104M178.888 86.9049L239.37 81.4968M178.888 86.9049L177.21 75.4947M18.818 129.131L20.706 132.684L36.2708 124.414L34.3828 120.861M18.818 129.131L34.3828 120.861" stroke="black" stroke-width="4" stroke-linejoin="round"/>
</svg>
