<svg width="249" height="176" viewBox="0 0 249 176" fill="none" xmlns="http://www.w3.org/2000/svg">
<path d="M115.035 65.8617L237.155 38.5801L231.339 76.8339L94.7491 110.056L55.4402 141.359L48.528 134.257L83.3432 100.494L31.9156 123.246L28.0496 112.331L79.948 83.2375L24.2464 100.571L16.0667 87.6352L48.868 76.0414L42.2609 66.9244L22.7565 66.2383L20.6832 56.9444L58.289 51.4464L115.035 65.8617Z" fill="#FFE500" stroke="black" stroke-width="4" stroke-linejoin="round"/>
<path d="M237.155 38.5801L115.035 65.8617L58.289 51.4464L20.6832 56.9444L22.7565 66.2383L42.2609 66.9244M231.339 76.8339L94.7491 110.056L55.4402 141.359L48.528 134.257L83.3432 100.494L31.9156 123.246L28.0496 112.331L79.948 83.2375L24.2464 100.571L16.0667 87.6352L48.868 76.0414M42.2609 66.9244L71.7295 67.9609L48.868 76.0414M42.2609 66.9244L48.868 76.0414M33.9834 113.388L35.396 117.613L44.2184 114.017L42.7997 110.104L33.9834 113.388ZM52.9536 133.875L56.1727 137.248L62.4848 132.343L57.5855 129.318L52.9536 133.875ZM22.0883 89.5816L26.5409 96.0117L36.2209 93.6453L30.8897 87.3127L22.0883 89.5816ZM25.2617 59.6826L25.9313 63.1757L33.1382 63.8137L31.6698 58.9017L25.2617 59.6826Z" stroke="black" stroke-width="4" stroke-linejoin="round"/>
</svg>
