<svg width="288" height="235" viewBox="0 0 288 235" fill="none" xmlns="http://www.w3.org/2000/svg">
<path d="M150.691 128.664L274.844 172.882L265.44 120.753L173.217 104.349C155.208 101.416 99.4471 80.4415 73.8177 70.3209L73.1621 72.0379L23.2407 60.2598L22.5554 69.1766L17.788 68.4379L17.0655 82.1576L25.1105 83.3405L25.9631 93.0761L79.2179 100.256L81.7691 104.059L46.0981 119.021L51.8311 128.645L88.9787 114.483L117.523 120.525C126.452 138.367 142.617 134.039 150.691 128.664Z" fill="#FFE500"/>
<path d="M68.027 85.4879L73.1621 72.0379M68.027 85.4879L22.2854 72.6892L22.5554 69.1766M68.027 85.4879L79.4736 91.3342M117.523 120.525C126.451 138.367 142.617 134.039 150.691 128.664L274.844 172.882L265.44 120.753L173.217 104.349C155.208 101.416 99.4471 80.4415 73.8177 70.3209L73.1621 72.0379M117.523 120.525C115.929 117.338 114.565 113.444 113.52 108.723L79.4736 91.3342M117.523 120.525L88.9787 114.483L51.8311 128.645L46.0981 119.021L81.7691 104.059M81.7691 104.059L84.367 108.12M81.7691 104.059L79.2179 100.256L25.9631 93.0761L25.1105 83.3405M73.1621 72.0379L23.2407 60.2598L22.5554 69.1766M22.5554 69.1766L17.788 68.4378L17.0655 82.1576L25.1105 83.3405M79.4736 91.3342L25.1105 83.3405M86.9846 79.8649L82.6591 87.1279L74.4848 83.4074L76.8847 75.1941L86.9846 79.8649Z" stroke="black" stroke-width="4"/>
</svg>
