<svg width="58" height="59" viewBox="0 0 58 59" fill="none" xmlns="http://www.w3.org/2000/svg">
<rect x="1.5" y="1.5" width="55" height="56" rx="27.5" fill="#FFF500"/>
<rect x="1.5" y="1.5" width="55" height="56" rx="27.5" stroke="#FFF500" stroke-width="3"/>
<path d="M13.8297 42.0778H16.9131V39.8145H13.8578C12.8019 39.8145 12.2668 39.2803 12.2668 38.2259V19.866C12.2668 18.8116 12.8019 18.2634 13.8578 18.2634H34.4564C35.4983 18.2634 36.0615 18.8116 36.0615 19.866V40.5033L38.3283 39.2661V19.8238C38.3283 17.3215 37.0049 16 34.4986 16H13.8297C11.3094 16 10 17.3215 10 19.8238V38.268C10 40.7705 11.3094 42.0778 13.8297 42.0778ZM37.0893 26.0234H41.9327C42.6508 26.0234 43.1577 26.15 43.7349 26.7826L48.1559 31.7451C48.536 32.1669 48.7332 32.7573 48.7332 33.2633V38.2259C48.7332 39.2803 48.184 39.8145 47.128 39.8145H44.8612V42.0778H47.1703C49.6765 42.0778 51 40.7705 51 38.268V33.3056C51 31.9279 50.7747 31.2812 50.0004 30.4095L45.2133 25.0113C44.3826 24.0834 43.4534 23.7601 42.0735 23.7601H37.0893V26.0234ZM40.9612 33.4321H47.0999C47.0999 33.0947 46.9732 32.912 46.7621 32.673L42.5663 27.9635C42.2566 27.6401 41.8905 27.4293 41.4962 27.4293H39.7503V32.2372C39.7503 32.9823 40.2149 33.4321 40.9612 33.4321ZM20.4471 46C23.094 46 25.2483 43.8492 25.2483 41.1921C25.2483 38.5492 23.094 36.3983 20.4471 36.3983C17.7861 36.3983 15.6178 38.5492 15.6178 41.1921C15.6178 43.8492 17.7861 46 20.4471 46ZM20.4471 44.0882C18.842 44.0882 17.5326 42.7948 17.5326 41.1921C17.5326 39.6036 18.842 38.2962 20.4471 38.2962C22.0381 38.2962 23.3335 39.6036 23.3335 41.1921C23.3335 42.7948 22.0381 44.0882 20.4471 44.0882ZM40.7359 46C43.397 46 45.5371 43.8492 45.5371 41.1921C45.5371 38.5492 43.397 36.3983 40.7359 36.3983C38.0749 36.3983 35.9207 38.5492 35.9207 41.1921C35.9207 43.8492 38.0749 46 40.7359 46ZM40.7359 44.0882C39.1449 44.0882 37.8355 42.7948 37.8355 41.1921C37.8355 39.6036 39.1449 38.2962 40.7359 38.2962C42.3128 38.2962 43.6223 39.6036 43.6223 41.1921C43.6223 42.7948 42.341 44.0882 40.7359 44.0882ZM24.1923 42.0778H37.033V39.8145H24.1923V42.0778Z" fill="black" fill-opacity="0.85"/>
</svg>
