<svg width="58" height="59" viewBox="0 0 58 59" fill="none" xmlns="http://www.w3.org/2000/svg">
<rect x="1.5" y="1.5" width="55" height="56" rx="27.5" fill="#FFF500"/>
<rect x="1.5" y="1.5" width="55" height="56" rx="27.5" stroke="#FFF500" stroke-width="3"/>
<g clip-path="url(#clip0_184_1263)">
<path d="M20.0195 30.1211C21.3203 30.1211 22.457 29.5234 23.1719 28.5742C23.875 29.5234 25.0117 30.1211 26.3125 30.1211C27.625 30.1211 28.7617 29.5234 29.4648 28.5742C30.168 29.5234 31.3047 30.1211 32.6172 30.1211C33.9297 30.1211 35.0547 29.5234 35.7695 28.5742C36.4727 29.5234 37.6094 30.1211 38.9102 30.1211C41.1602 30.1211 42.9297 28.3516 42.9297 26.125V25.9258C42.9297 25.4688 42.8125 25.0586 42.5781 24.6602L39.4727 19.3516V18.3789C39.4727 16.8906 38.5586 16 37.0469 16H21.8945C20.3828 16 19.457 16.8906 19.457 18.3789V19.3516L16.3516 24.6602C16.1172 25.0586 16 25.4688 16 25.9258V26.125C16 28.3516 17.7695 30.1211 20.0195 30.1211ZM21.2266 18.9883V18.707C21.2266 18.1211 21.5664 17.7695 22.1406 17.7695H36.7891C37.3633 17.7695 37.7031 18.1211 37.7031 18.707V18.9883H21.2266ZM18.0273 25.2344L20.5703 20.7578H38.2656L40.8789 25.2344H18.0273ZM17.7578 26.8867H22.2812C22.0234 27.8359 21.2266 28.4688 20.0195 28.4688C18.8125 28.4688 18.0156 27.8359 17.7578 26.8867ZM24.0625 26.8867H28.5742C28.3164 27.8359 27.5195 28.4688 26.3125 28.4688C25.1172 28.4688 24.3086 27.8359 24.0625 26.8867ZM30.3555 26.8867H34.8789C34.6211 27.8359 33.8242 28.4688 32.6172 28.4688C31.4102 28.4688 30.6133 27.8359 30.3555 26.8867ZM36.6602 26.8867H41.1719C40.9141 27.8359 40.1172 28.4688 38.9102 28.4688C37.7148 28.4688 36.9062 27.8359 36.6602 26.8867ZM20.6523 41.6875H38.2773C39.9414 41.6875 40.9141 40.7383 40.9141 39.0977V29.1484L39.0273 29.2188V38.6172C39.0273 39.3789 38.6289 39.8008 37.8789 39.8008H21.0625C20.3125 39.8008 19.9023 39.3789 19.9023 38.6172V29.207L18.0156 29.1836V39.0977C18.0156 40.7383 18.9883 41.6875 20.6523 41.6875ZM21.7656 40.9141H28.5273V33.2266C28.5273 32.6875 28.1758 32.3359 27.6367 32.3359H22.668C22.1289 32.3359 21.7656 32.6875 21.7656 33.2266V40.9141ZM30.7305 32.6055V35.9102C30.7305 36.4609 31.082 36.8008 31.6328 36.8008H36.3906C36.9297 36.8008 37.2695 36.4609 37.2695 35.9102V32.6055C37.2695 32.0547 36.9297 31.7148 36.3906 31.7148H31.6328C31.082 31.7148 30.7305 32.0547 30.7305 32.6055Z" fill="black" fill-opacity="0.85"/>
</g>
<defs>
<clipPath id="clip0_184_1263">
<rect width="26.9297" height="25.6992" fill="white" transform="translate(16 16)"/>
</clipPath>
</defs>
</svg>
