<svg width="58" height="59" viewBox="0 0 58 59" fill="none" xmlns="http://www.w3.org/2000/svg">
<rect x="1.5" y="1.5" width="55" height="56" rx="27.5" fill="#FFF500"/>
<rect x="1.5" y="1.5" width="55" height="56" rx="27.5" stroke="#FFF500" stroke-width="3"/>
<g clip-path="url(#clip0_184_1265)">
<path d="M35.1095 42.1563L41.3462 45.8037C41.79 46.0654 42.21 46.0654 42.6617 45.8037L48.8905 42.1563C49.6196 41.731 50 41.2976 50 40.1281V33.6511C50 32.8006 49.6988 32.269 49.0332 31.8764L43.4225 28.5888C42.4636 28.0245 41.5364 28.0245 40.5775 28.5888L34.9747 31.8764C34.3011 32.269 34 32.8006 34 33.6511V40.1281C34 41.2976 34.3883 41.731 35.1095 42.1563ZM35.8227 41.0768C35.363 40.8151 35.2046 40.537 35.2046 40.0872V33.9128L41.3779 37.552V44.3399L35.8227 41.0768ZM48.1852 41.0768L42.6221 44.3399V37.552L48.7954 33.9128V40.0872C48.7954 40.537 48.6369 40.8151 48.1852 41.0768ZM42.0039 36.4071L35.8861 32.8333L38.3348 31.3857L44.4527 34.9759L42.0039 36.4071ZM45.7286 34.2317L39.5869 30.6497L41.1084 29.7583C41.7187 29.3985 42.2813 29.3903 42.8995 29.7583L48.1218 32.8333L45.7286 34.2317Z" fill="black" fill-opacity="0.85"/>
</g>
<g clip-path="url(#clip1_184_1265)">
<path d="M12.0195 30.1211C13.3203 30.1211 14.457 29.5234 15.1719 28.5742C15.875 29.5234 17.0117 30.1211 18.3125 30.1211C19.625 30.1211 20.7617 29.5234 21.4648 28.5742C22.168 29.5234 23.3047 30.1211 24.6172 30.1211C25.9297 30.1211 27.0547 29.5234 27.7695 28.5742C28.4727 29.5234 29.6094 30.1211 30.9102 30.1211C33.1602 30.1211 34.9297 28.3516 34.9297 26.125V25.9258C34.9297 25.4688 34.8125 25.0586 34.5781 24.6602L31.4727 19.3516V18.3789C31.4727 16.8906 30.5586 16 29.0469 16H13.8945C12.3828 16 11.457 16.8906 11.457 18.3789V19.3516L8.35156 24.6602C8.11719 25.0586 8 25.4688 8 25.9258V26.125C8 28.3516 9.76953 30.1211 12.0195 30.1211ZM13.2266 18.9883V18.707C13.2266 18.1211 13.5664 17.7695 14.1406 17.7695H28.7891C29.3633 17.7695 29.7031 18.1211 29.7031 18.707V18.9883H13.2266ZM10.0273 25.2344L12.5703 20.7578H30.2656L32.8789 25.2344H10.0273ZM9.75781 26.8867H14.2812C14.0234 27.8359 13.2266 28.4688 12.0195 28.4688C10.8125 28.4688 10.0156 27.8359 9.75781 26.8867ZM16.0625 26.8867H20.5742C20.3164 27.8359 19.5195 28.4688 18.3125 28.4688C17.1172 28.4688 16.3086 27.8359 16.0625 26.8867ZM22.3555 26.8867H26.8789C26.6211 27.8359 25.8242 28.4688 24.6172 28.4688C23.4102 28.4688 22.6133 27.8359 22.3555 26.8867ZM28.6602 26.8867H33.1719C32.9141 27.8359 32.1172 28.4688 30.9102 28.4688C29.7148 28.4688 28.9062 27.8359 28.6602 26.8867ZM12.6523 41.6875H30.2773C31.9414 41.6875 32.9141 40.7383 32.9141 39.0977V29.1484L31.0273 29.2188V38.6172C31.0273 39.3789 30.6289 39.8008 29.8789 39.8008H13.0625C12.3125 39.8008 11.9023 39.3789 11.9023 38.6172V29.207L10.0156 29.1836V39.0977C10.0156 40.7383 10.9883 41.6875 12.6523 41.6875ZM13.7656 40.9141H20.5273V33.2266C20.5273 32.6875 20.1758 32.3359 19.6367 32.3359H14.668C14.1289 32.3359 13.7656 32.6875 13.7656 33.2266V40.9141ZM22.7305 32.6055V35.9102C22.7305 36.4609 23.082 36.8008 23.6328 36.8008H28.3906C28.9297 36.8008 29.2695 36.4609 29.2695 35.9102V32.6055C29.2695 32.0547 28.9297 31.7148 28.3906 31.7148H23.6328C23.082 31.7148 22.7305 32.0547 22.7305 32.6055Z" fill="black" fill-opacity="0.85"/>
</g>
<defs>
<clipPath id="clip0_184_1265">
<rect width="16" height="18" fill="white" transform="translate(34 28)"/>
</clipPath>
<clipPath id="clip1_184_1265">
<rect width="26.9297" height="25.6992" fill="white" transform="translate(8 16)"/>
</clipPath>
</defs>
</svg>
