<svg width="58" height="59" viewBox="0 0 58 59" fill="none" xmlns="http://www.w3.org/2000/svg">
<rect x="1.5" y="1.5" width="55" height="56" rx="27.5" fill="#FFF500"/>
<rect x="1.5" y="1.5" width="55" height="56" rx="27.5" stroke="#FFF500" stroke-width="3"/>
<g clip-path="url(#clip0_184_1264)">
<path d="M18.6406 36.2852L27.8633 41.5117C28.5195 41.8867 29.1406 41.8867 29.8086 41.5117L39.0195 36.2852C40.0977 35.6758 40.6602 35.0547 40.6602 33.3789V24.0977C40.6602 22.8789 40.2148 22.1172 39.2305 21.5547L30.9336 16.8438C29.5156 16.0352 28.1445 16.0352 26.7266 16.8438L18.4414 21.5547C17.4453 22.1172 17 22.8789 17 24.0977V33.3789C17 35.0547 17.5742 35.6758 18.6406 36.2852ZM19.6953 34.7383C19.0156 34.3633 18.7812 33.9648 18.7812 33.3203V24.4727L27.9102 29.6875V39.4141L19.6953 34.7383ZM37.9766 34.7383L29.75 39.4141V29.6875L38.8789 24.4727V33.3203C38.8789 33.9648 38.6445 34.3633 37.9766 34.7383ZM28.8359 28.0469L19.7891 22.9258L23.4102 20.8516L32.457 25.9961L28.8359 28.0469ZM34.3438 24.9297L25.2617 19.7969L27.5117 18.5195C28.4141 18.0039 29.2461 17.9922 30.1602 18.5195L37.8828 22.9258L34.3438 24.9297Z" fill="black" fill-opacity="0.85"/>
</g>
<defs>
<clipPath id="clip0_184_1264">
<rect width="23.6602" height="25.793" fill="white" transform="translate(17 16)"/>
</clipPath>
</defs>
</svg>
