<svg width="1200" height="639" viewBox="0 0 1200 639" fill="none" xmlns="http://www.w3.org/2000/svg">
<g clip-path="url(#clip0_163_1238)">
<path d="M162.855 457.716L156.078 462.042L159.552 470.481C160.024 471.656 159.681 473.099 158.694 473.739C157.751 474.327 156.593 473.9 156.078 472.671L152.603 464.232L145.826 468.558C144.882 469.146 143.724 468.719 143.209 467.544C142.737 466.369 143.081 464.926 144.067 464.286L150.845 459.959L147.37 451.52C146.898 450.345 147.241 448.903 148.228 448.262C149.172 447.674 150.33 448.102 150.802 449.277L154.276 457.716L161.054 453.39C163.327 452.054 165.086 456.274 162.855 457.716Z" fill="#02121C"/>
<path d="M1060.36 99.979L1056.14 102.641L1058.3 107.835C1058.6 108.558 1058.38 109.445 1057.77 109.84C1057.18 110.201 1056.46 109.938 1056.14 109.182L1053.98 103.989L1049.76 106.651C1049.17 107.013 1048.45 106.75 1048.13 106.027C1047.84 105.304 1048.05 104.416 1048.66 104.022L1052.88 101.36L1050.72 96.1662C1050.43 95.4431 1050.64 94.5557 1051.25 94.1612C1051.84 93.7997 1052.56 94.0626 1052.86 94.7857L1055.02 99.979L1059.24 97.3166C1060.65 96.4949 1061.75 99.0916 1060.36 99.979Z" fill="#02121C"/>
<rect x="-98.5" y="-46.5" width="463" height="416" rx="208" stroke="#FFF500" stroke-width="3"/>
<rect x="-126.5" y="-34.5" width="468" height="429" rx="214.5" stroke="black"/>
<rect x="23.5" y="428.5" width="63" height="65" rx="31.5" stroke="#FFF500" stroke-width="3"/>
<rect x="109" y="512" width="33" height="33" rx="16.5" stroke="#FFF500" stroke-width="2"/>
<rect x="1044" y="24" width="33" height="33" rx="16.5" stroke="#FFF500" stroke-width="2"/>
<rect x="1100.5" y="71.5" width="55" height="56" rx="27.5" stroke="#FFF500" stroke-width="3"/>
<rect x="832.5" y="215.5" width="542" height="548" rx="271" stroke="#FFF500" stroke-width="3"/>
<rect x="872.693" y="159.692" width="570" height="570" rx="285" stroke="black"/>
</g>
<defs>
<clipPath id="clip0_163_1238">
<rect width="1200" height="639" rx="8" fill="white"/>
</clipPath>
</defs>
</svg>
